<svg width="40" height="48" viewBox="0 0 40 48" fill="none" xmlns="http://www.w3.org/2000/svg">
<path fill-rule="evenodd" clip-rule="evenodd" d="M21.5968 46.9565C26.3372 43.7052 40 33.1613 40 19.6364C40 8.7915 31.0457 0 20 0C8.9543 0 0 8.7915 0 19.6364C0 33.1613 13.6628 43.7052 18.4032 46.9565C18.9141 47.3069 19.1695 47.4821 19.5237 47.5689C19.8047 47.6378 20.1953 47.6378 20.4763 47.5689C20.8305 47.4821 21.0859 47.3069 21.5968 46.9565ZM20 24C23.3137 24 26 21.3137 26 18C26 14.6863 23.3137 12 20 12C16.6863 12 14 14.6863 14 18C14 21.3137 16.6863 24 20 24Z" fill="white"/>
</svg>
