<svg width="30" height="41" viewBox="0 0 30 41" fill="none" xmlns="http://www.w3.org/2000/svg">
<rect x="0.75" y="13.75" width="28.5" height="26.5" rx="1.25" stroke="#735745" stroke-width="1.5"/>
<path d="M23 9C23 6.87827 22.1571 4.84344 20.6569 3.34315C19.1566 1.84285 17.1217 1 15 1C12.8783 1 10.8434 1.84285 9.34315 3.34315C7.84286 4.84344 7 6.87827 7 9" stroke="#735745" stroke-width="1.5" stroke-linecap="round"/>
<path d="M14.7289 20.904C13.5409 20.904 12.3529 21.318 11.1649 22.146L10.7329 20.994C11.9569 20.118 13.3489 19.68 14.9089 19.68C16.1929 19.68 17.1889 20.01 17.8969 20.67C18.6049 21.318 18.9589 22.23 18.9589 23.406C18.9589 24.582 18.5329 25.77 17.6809 26.97C16.8289 28.17 15.2329 29.766 12.8929 31.758V31.794H19.0129V33H10.9129V31.794C13.4689 29.682 15.1969 28.038 16.0969 26.862C17.0089 25.674 17.4649 24.558 17.4649 23.514C17.4649 22.662 17.2309 22.014 16.7629 21.57C16.3069 21.126 15.6289 20.904 14.7289 20.904Z" fill="#735745"/>
</svg>
