<svg width="20" height="27" viewBox="0 0 20 27" fill="none" xmlns="http://www.w3.org/2000/svg">
<path d="M0.5 10C0.5 9.17157 1.17157 8.5 2 8.5H18C18.8284 8.5 19.5 9.17157 19.5 10V25C19.5 25.8284 18.8284 26.5 18 26.5H2C1.17157 26.5 0.5 25.8284 0.5 25V10Z" stroke="#735745"/>
<path d="M15 6C15 4.67392 14.4732 3.40215 13.5355 2.46447C12.5979 1.52678 11.3261 1 10 1C8.67392 1 7.40215 1.52678 6.46447 2.46447C5.52678 3.40215 5 4.67392 5 6" stroke="#735745" stroke-linecap="round"/>
<path d="M9.8193 13.936C9.0273 13.936 8.2353 14.212 7.4433 14.764L7.1553 13.996C7.9713 13.412 8.8993 13.12 9.9393 13.12C10.7953 13.12 11.4593 13.34 11.9313 13.78C12.4033 14.212 12.6393 14.82 12.6393 15.604C12.6393 16.388 12.3553 17.18 11.7873 17.98C11.2193 18.78 10.1553 19.844 8.5953 21.172V21.196H12.6753V22H7.2753V21.196C8.9793 19.788 10.1313 18.692 10.7313 17.908C11.3393 17.116 11.6433 16.372 11.6433 15.676C11.6433 15.108 11.4873 14.676 11.1753 14.38C10.8713 14.084 10.4193 13.936 9.8193 13.936Z" fill="#735745"/>
</svg>
