<svg width="30" height="31" viewBox="0 0 30 31" fill="none" xmlns="http://www.w3.org/2000/svg">
<path d="M15 2.70503C19.0054 2.70503 19.4794 2.72051 21.0614 2.79255C22.5238 2.85924 23.3181 3.10337 23.8469 3.30879C24.4992 3.54898 25.0893 3.93253 25.5736 4.43117C26.0722 4.9155 26.4558 5.50558 26.696 6.15791C26.9014 6.68665 27.1455 7.48095 27.2122 8.94332C27.2843 10.5254 27.2997 10.9993 27.2997 15.0048C27.2997 19.0102 27.2843 19.4842 27.2122 21.0662C27.1455 22.5286 26.9014 23.3229 26.696 23.8516C26.4462 24.4984 26.0638 25.0857 25.5736 25.576C25.0833 26.0662 24.496 26.4485 23.8492 26.6984C23.3205 26.9038 22.5262 27.1479 21.0638 27.2146C19.4824 27.2866 19.0078 27.3021 15.0024 27.3021C10.9969 27.3021 10.5224 27.2866 8.94093 27.2146C7.47856 27.1479 6.68426 26.9038 6.15553 26.6984C5.5032 26.4582 4.91312 26.0746 4.42879 25.576C3.93015 25.0916 3.54659 24.5016 3.30641 23.8492C3.10098 23.3205 2.85686 22.5262 2.79017 21.0638C2.71812 19.4818 2.70264 19.0078 2.70264 15.0024C2.70264 10.9969 2.71812 10.523 2.79017 8.94093C2.85686 7.47856 3.10098 6.68426 3.30641 6.15553C3.54659 5.5032 3.93015 4.91312 4.42879 4.42879C4.91312 3.93015 5.5032 3.54659 6.15553 3.30641C6.68426 3.10098 7.47856 2.85686 8.94093 2.79017C10.523 2.71812 10.9969 2.70264 15.0024 2.70264L15 2.70503ZM15.0024 0C10.9285 0 10.4176 0.0172674 8.81768 0.0905049C7.21777 0.163742 6.12814 0.419181 5.17545 0.789536C4.1743 1.16641 3.26727 1.75687 2.51747 2.51985C1.75449 3.26965 1.16403 4.17668 0.787155 5.17783C0.416799 6.13052 0.163147 7.22253 0.0905049 8.81887C0.0178628 10.4152 0 10.9285 0 15.0024C0 19.0763 0.0172674 19.5872 0.0905049 21.1871C0.163742 22.787 0.416799 23.8742 0.787155 24.8269C1.16418 25.8277 1.75463 26.7343 2.51747 27.4837C3.26702 28.2472 4.17411 28.8379 5.17545 29.2146C6.12814 29.5856 7.22015 29.8392 8.81649 29.9119C10.4128 29.9845 10.9273 30.0024 15.0012 30.0024C19.0751 30.0024 19.586 29.9851 21.1859 29.9119C22.7858 29.8386 23.8719 29.5856 24.8245 29.2146C25.8213 28.8295 26.7266 28.2402 27.4822 27.4846C28.2378 26.729 28.8271 25.8237 29.2122 24.8269C29.5832 23.8742 29.8369 22.7822 29.9095 21.1859C29.9821 19.5896 30 19.0751 30 15.0012C30 10.9273 29.9827 10.4164 29.9095 8.81649C29.8363 7.21658 29.5832 6.13052 29.2122 5.17783C28.8357 4.17702 28.2454 3.27036 27.4825 2.52104C26.7328 1.75763 25.8258 1.16676 24.8245 0.789536C23.8719 0.419181 22.7799 0.165529 21.1835 0.0928866C19.5872 0.0202445 19.0739 0.00238171 15 0.00238171L15.0024 0Z" fill="white"/>
<path d="M15 7.29993C13.4766 7.29993 11.9874 7.75167 10.7208 8.59802C9.45409 9.44438 8.46685 10.6473 7.88387 12.0548C7.30089 13.4622 7.14836 15.0109 7.44556 16.505C7.74276 17.9992 8.47635 19.3716 9.55355 20.4488C10.6308 21.526 12.0032 22.2596 13.4973 22.5568C14.9915 22.854 16.5402 22.7015 17.9476 22.1185C19.355 21.5355 20.558 20.5483 21.4044 19.2816C22.2507 18.015 22.7024 16.5258 22.7024 15.0024C22.7025 13.9908 22.5033 12.9892 22.1163 12.0547C21.7292 11.1201 21.1619 10.271 20.4466 9.55575C19.7314 8.84049 18.8822 8.27314 17.9477 7.88608C17.0132 7.49902 16.0115 7.29985 15 7.29993ZM15 20.004C14.0108 20.004 13.0438 19.7106 12.2213 19.161C11.3988 18.6115 10.7577 17.8303 10.3791 16.9164C10.0006 16.0025 9.90153 14.9968 10.0945 14.0266C10.2875 13.0564 10.7639 12.1652 11.4633 11.4657C12.1628 10.7662 13.054 10.2899 14.0242 10.0969C14.9945 9.9039 16.0001 10.0029 16.914 10.3815C17.8279 10.7601 18.6091 11.4011 19.1587 12.2236C19.7083 13.0461 20.0016 14.0132 20.0016 15.0024C20.0016 16.3289 19.4746 17.601 18.5367 18.539C17.5987 19.477 16.3265 20.004 15 20.004Z" fill="white"/>
<path d="M23.0073 8.79508C24.0014 8.79508 24.8073 7.98921 24.8073 6.99511C24.8073 6.00101 24.0014 5.19513 23.0073 5.19513C22.0132 5.19513 21.2073 6.00101 21.2073 6.99511C21.2073 7.98921 22.0132 8.79508 23.0073 8.79508Z" fill="white"/>
</svg>
