<svg width="201" height="95" viewBox="0 0 201 95" fill="none" xmlns="http://www.w3.org/2000/svg">
<path d="M11.4337 0.481722C11.435 0.397925 11.4692 0.318026 11.5288 0.259257C11.5885 0.200488 11.6688 0.167558 11.7524 0.167569H18.3891C18.4722 0.167569 18.552 0.200667 18.6108 0.259582C18.6696 0.318497 18.7026 0.398403 18.7026 0.481722V1.39276C18.7026 1.47608 18.6696 1.55599 18.6108 1.6149C18.552 1.67382 18.4722 1.70692 18.3891 1.70692H13.132V5.58146H17.5739C17.6567 5.58401 17.7356 5.61777 17.7946 5.676C17.8537 5.73424 17.8887 5.81266 17.8926 5.89562V6.81189C17.89 6.89526 17.8554 6.9744 17.796 7.0329C17.7367 7.09139 17.6571 7.12475 17.5739 7.12605H13.132V11.498C13.1307 11.5814 13.0974 11.6611 13.039 11.7206C12.9807 11.78 12.9017 11.8147 12.8185 11.8174H11.7524C11.6679 11.8174 11.5868 11.7837 11.527 11.7238C11.4672 11.6639 11.4337 11.5827 11.4337 11.498V0.481722Z" fill="#735745"/>
<path d="M22.5801 11.3723L27.6752 0.183277C27.7057 0.133665 27.7469 0.0914807 27.7957 0.059784C27.8445 0.0280873 27.8997 0.0076729 27.9574 2.09719e-05H28.1246C28.1823 0.0076729 28.2375 0.0280873 28.2863 0.059784C28.3351 0.0914807 28.3763 0.133665 28.4068 0.183277L33.4653 11.3723C33.4912 11.4189 33.5039 11.4717 33.502 11.525C33.5002 11.5783 33.4839 11.6301 33.4549 11.6748C33.4258 11.7195 33.3852 11.7554 33.3373 11.7787C33.2894 11.802 33.2361 11.8117 33.1831 11.8069H32.1379C32.056 11.811 31.9748 11.7889 31.9062 11.7437C31.8377 11.6985 31.7852 11.6326 31.7565 11.5556L30.7113 9.27799H25.3027C24.9683 10.0424 24.6234 10.7912 24.2889 11.5556C24.2565 11.63 24.2032 11.6934 24.1354 11.738C24.0677 11.7827 23.9885 11.8066 23.9074 11.8069H22.8623C22.8098 11.81 22.7575 11.7991 22.7106 11.7754C22.6637 11.7516 22.6239 11.7159 22.5952 11.6717C22.5666 11.6276 22.5501 11.5767 22.5474 11.5241C22.5448 11.4715 22.556 11.4192 22.5801 11.3723ZM30.0999 7.8486L28.0567 3.29339H27.973L25.9507 7.8486H30.0999Z" fill="#735745"/>
<path d="M37.6929 10.1262C37.8392 9.91153 37.9751 9.66021 38.1214 9.44554C38.1464 9.39624 38.1817 9.35296 38.2251 9.31868C38.2684 9.2844 38.3186 9.25995 38.3722 9.24701C38.4259 9.23407 38.4817 9.23294 38.5358 9.24372C38.59 9.25449 38.6411 9.2769 38.6858 9.30941C38.7851 9.39318 40.0654 10.4613 41.3404 10.4613C42.4901 10.4613 43.2165 9.75969 43.2165 8.89054C43.2165 7.89572 42.3542 7.26218 40.7133 6.58152C39.0725 5.90085 37.6929 5.00552 37.6929 3.07872C37.6929 1.78022 38.6858 2.09719e-05 41.3509 2.09719e-05C42.4494 0.0182359 43.5183 0.360629 44.4236 0.984365C44.4659 1.01656 44.5012 1.05704 44.5274 1.10332C44.5536 1.14961 44.5701 1.20075 44.576 1.25363C44.5818 1.30651 44.5769 1.36004 44.5615 1.41096C44.5461 1.46188 44.5205 1.50913 44.4863 1.54984C44.3504 1.7488 44.2041 1.97918 44.0683 2.17814C44.0452 2.2311 44.0108 2.27831 43.9675 2.31641C43.9241 2.3545 43.8729 2.38255 43.8175 2.39856C43.7621 2.41456 43.7039 2.41812 43.647 2.40898C43.59 2.39984 43.5358 2.37823 43.4882 2.34569C42.8196 1.89347 42.0527 1.60803 41.2516 1.51319C39.8563 1.51319 39.3756 2.39282 39.3756 3.01065C39.3756 3.95834 40.1019 4.53952 41.4658 5.105C43.3889 5.88514 45.035 6.80142 45.035 8.82771C45.035 10.5608 43.4673 11.9692 41.3352 11.9692C40.0264 11.9809 38.758 11.5157 37.766 10.6603C37.6406 10.5241 37.5257 10.4089 37.6929 10.1262Z" fill="#735745"/>
<path d="M50.6631 0.481722C50.6669 0.399635 50.7012 0.321932 50.7592 0.263825C50.8172 0.205718 50.8947 0.171393 50.9767 0.167569H52.0741C52.1572 0.167569 52.237 0.200667 52.2958 0.259582C52.3546 0.318497 52.3876 0.398403 52.3876 0.481722V5.12071H58.4651V0.481722C58.4651 0.398403 58.4981 0.318497 58.5569 0.259582C58.6157 0.200667 58.6955 0.167569 58.7786 0.167569H59.8708C59.9537 0.170113 60.0325 0.203873 60.0916 0.262108C60.1507 0.320343 60.1857 0.398768 60.1896 0.481722V11.4771C60.187 11.5609 60.1525 11.6407 60.0933 11.7C60.0341 11.7593 59.9545 11.7938 59.8708 11.7964H58.7786C58.737 11.7965 58.6958 11.7882 58.6574 11.772C58.6191 11.7559 58.5843 11.7323 58.5551 11.7026C58.5259 11.6729 58.5029 11.6376 58.4875 11.5989C58.472 11.5602 58.4644 11.5188 58.4651 11.4771V6.68623H52.3876V11.4875C52.3883 11.5292 52.3807 11.5706 52.3652 11.6094C52.3498 11.6481 52.3268 11.6833 52.2976 11.7131C52.2684 11.7428 52.2336 11.7664 52.1953 11.7825C52.1569 11.7986 52.1157 11.8069 52.0741 11.8069H50.9767C50.8939 11.803 50.8156 11.7679 50.7575 11.7087C50.6993 11.6495 50.6656 11.5705 50.6631 11.4875V0.481722Z" fill="#735745"/>
<path d="M66.7165 0.481722C66.7204 0.398768 66.7554 0.320343 66.8145 0.262108C66.8736 0.203873 66.9524 0.170113 67.0353 0.167569H68.1275C68.2103 0.170113 68.2891 0.203873 68.3482 0.262108C68.4073 0.320343 68.4423 0.398768 68.4462 0.481722V11.4771C68.4436 11.5609 68.4092 11.6407 68.35 11.7C68.2907 11.7593 68.2112 11.7938 68.1275 11.7964H67.0353C66.9516 11.7938 66.872 11.7593 66.8128 11.7C66.7536 11.6407 66.7191 11.5609 66.7165 11.4771V0.481722Z" fill="#735745"/>
<path d="M80.0891 2.05688e-05C81.2705 -0.00308201 82.4262 0.344874 83.4102 0.999887C84.3941 1.6549 85.1621 2.58755 85.6171 3.6799C86.072 4.77225 86.1935 5.97524 85.966 7.13674C85.7386 8.29824 85.1725 9.36609 84.3394 10.2052C83.5062 11.0444 82.4435 11.6172 81.2854 11.8511C80.1274 12.0851 78.9261 11.9697 77.8335 11.5197C76.7409 11.0696 75.806 10.305 75.1471 9.32254C74.4882 8.34011 74.1349 7.18397 74.1318 6.00033C74.1284 5.21404 74.2799 4.4348 74.5777 3.7073C74.8754 2.9798 75.3136 2.31836 75.8671 1.7609C76.4205 1.20345 77.0784 0.760944 77.8029 0.458772C78.5274 0.156599 79.3043 0.000702152 80.0891 2.05688e-05ZM80.0891 10.3095C80.9444 10.3136 81.7816 10.0631 82.4945 9.5897C83.2074 9.11631 83.7639 8.44139 84.0934 7.65059C84.4228 6.85978 84.5104 5.98875 84.3449 5.14801C84.1794 4.30727 83.7684 3.53473 83.164 2.92842C82.5596 2.32211 81.7891 1.90937 80.9502 1.74257C80.1113 1.57576 79.2418 1.66242 78.4522 1.99155C77.6625 2.32067 76.9882 2.87742 76.5149 3.59115C76.0415 4.30488 75.7905 5.14341 75.7936 6.00033C75.8018 7.13828 76.2573 8.22712 77.0614 9.03081C77.8655 9.8345 78.9534 10.2883 80.0891 10.2938V10.3095Z" fill="#735745"/>
<path d="M91.7477 0.298465C91.753 0.21744 91.7889 0.141484 91.8481 0.0860446C91.9073 0.0306054 91.9854 -0.00015404 92.0665 2.07138e-05H92.4793L99.6803 8.346V0.492193C99.6817 0.408397 99.7159 0.328498 99.7755 0.269729C99.8352 0.21096 99.9155 0.178029 99.9991 0.178041H101.044C101.127 0.180661 101.205 0.2146 101.263 0.272957C101.321 0.331313 101.355 0.409706 101.358 0.492193V11.6708C101.355 11.7518 101.321 11.8285 101.262 11.8843C101.203 11.9402 101.125 11.9707 101.044 11.9692H100.611L93.4408 3.39287V11.4875C93.4408 11.5713 93.408 11.6518 93.3493 11.7115C93.2907 11.7713 93.2109 11.8055 93.1273 11.8069H92.0821C91.9984 11.8043 91.9189 11.7698 91.8596 11.7105C91.8004 11.6511 91.766 11.5714 91.7634 11.4875L91.7477 0.298465Z" fill="#735745"/>
<path d="M200.704 42.285C198.922 43.3321 197.239 43.9814 195.363 43.5206C194.807 43.3531 194.3 43.0531 193.884 42.6462C194.292 41.8242 196.811 37.8449 194.025 37.7088C192.567 37.6355 192.014 40.9132 193.336 42.5258L193.388 42.5834L193.153 42.8818C192.481 43.7226 191.678 44.4493 190.775 45.0338C190.581 45.1803 190.359 45.2864 190.123 45.3458C189.887 45.4051 189.641 45.4165 189.401 45.3794C189.208 45.3176 189.032 45.2143 188.884 45.0768C188.736 44.9393 188.62 44.7709 188.544 44.5835C188.313 44.0886 188.172 43.5569 188.126 43.0127C188.06 42.3534 188.043 41.6902 188.073 41.0283C188.096 40.3686 188.16 39.711 188.267 39.0597C188.346 38.5288 188.461 38.004 188.612 37.4889L188.889 36.5936C189.549 36.2874 190.168 35.9005 190.733 35.4417C191.517 34.8192 192.241 34.1251 192.897 33.3683C193.61 32.5706 194.227 31.6919 194.736 30.7503C195.225 29.8812 195.512 28.9131 195.577 27.9177C195.635 27.6598 195.616 27.3908 195.523 27.1435C195.43 26.8962 195.268 26.6813 195.055 26.525C194.811 26.409 194.547 26.3432 194.278 26.3315C194.009 26.3198 193.74 26.3624 193.487 26.4569C192.163 26.9343 191.007 27.7876 190.158 28.9125C189.139 30.1954 188.301 31.6139 187.671 33.1274C186.996 34.7251 186.488 36.3885 186.156 38.091C186.02 38.7717 185.926 39.4105 185.852 40.0283C184.969 41.7718 184.165 43.2693 183.454 44.5102C182.102 46.8733 181.104 48.0671 180.459 48.0915C180.099 48.0915 179.937 47.6884 179.937 46.8192C180.057 45.2463 180.339 43.69 180.778 42.175C180.95 41.5166 181.157 40.8681 181.4 40.2325C181.717 39.3529 182.031 38.3738 182.341 37.2952C182.651 36.2166 182.933 35.1013 183.187 33.9494C183.426 32.9474 183.552 31.9218 183.564 30.8917C183.603 30.1568 183.421 29.4271 183.041 28.7973C182.691 28.2737 182.085 28.1062 181.217 28.2737C180.193 28.4483 179.216 29.2668 178.286 30.7294C177.22 32.4449 176.298 34.2451 175.526 36.1119C174.621 38.2376 173.729 40.5519 172.851 43.0546C171.973 45.5574 171.102 47.9292 170.238 50.1702C169.971 50.7723 169.888 50.7566 169.987 50.1178C170.086 49.479 170.269 48.5471 170.541 47.2433C170.813 45.9396 171.147 44.5468 171.539 42.9656C171.931 41.3844 174.445 31.9284 174.795 30.6194C174.849 30.4633 174.855 30.2943 174.813 30.1346C174.77 29.9748 174.68 29.8318 174.554 29.7241C174.296 29.4809 173.985 29.3016 173.645 29.2005C173.305 29.0998 172.946 29.0871 172.6 29.1638C172.454 29.1811 172.317 29.2394 172.203 29.3321C172.089 29.4249 172.004 29.5481 171.957 29.6874C171.9 29.855 169.611 38.4366 169.381 39.3843C169.245 39.9445 169.104 40.5676 168.958 41.2378C168.686 41.7003 168.389 42.1477 168.069 42.5782C167.377 43.5024 166.591 44.3517 165.723 45.1123C164.903 45.8275 164.029 46.4787 163.11 47.0601C162.19 47.636 161.274 48.2207 160.361 48.8141C160.753 47.4999 161.088 46.3585 161.375 45.3846C161.663 44.4107 161.929 43.4683 162.185 42.5572C162.441 41.6462 162.708 40.7194 162.995 39.7613C163.283 38.8031 163.669 37.5046 164.04 36.2009C165.608 30.3733 165.279 30.5985 165.059 30.3733C164.865 30.1612 164.612 30.0117 164.333 29.944C164.035 29.8759 162.655 32.6405 161.642 35.2689L159.055 42.9918C158.569 43.9604 158.052 44.9291 157.487 45.9082C156.923 46.8873 156.379 47.7826 155.81 48.6047C155.291 49.3545 154.705 50.0555 154.059 50.699C153.589 51.2235 152.968 51.5893 152.282 51.7462C151.76 51.8299 151.535 51.453 151.582 50.6205C151.674 49.5394 151.884 48.4718 152.209 47.4371C152.631 46.0028 153.139 44.5953 153.73 43.2222C154.367 41.7038 155.029 40.3075 155.716 39.0335C156.256 37.9528 156.889 36.921 157.607 35.9495C158.208 35.1851 158.653 34.9024 158.982 35.0856C159.125 35.18 159.243 35.3081 159.325 35.4588C159.407 35.6094 159.45 35.778 159.452 35.9495C159.496 36.4213 159.463 36.8972 159.353 37.358C159.214 37.9359 159.011 38.4963 158.747 39.0282C158.467 39.5948 158.116 40.1227 157.701 40.599C157.466 40.8817 157.414 41.0702 157.555 41.1645C157.707 41.3425 157.9 41.3111 158.146 41.0702C158.815 40.2996 159.338 39.4122 159.687 38.4523C159.989 37.6726 160.121 36.837 160.074 36.0019C160.04 35.3386 159.825 34.6973 159.452 34.1484C159.291 33.9102 159.072 33.7164 158.816 33.5847C158.561 33.4529 158.276 33.3875 157.989 33.3944C157.224 33.451 156.495 33.7396 155.899 34.2217C154.903 35.0119 154.045 35.962 153.359 37.0334C152.821 37.8495 152.332 38.6975 151.896 39.5728C150.899 41.5552 150.123 43.641 149.581 45.793C149.328 46.7554 149.176 47.7416 149.126 48.7355C149.109 49.1567 149.125 49.5786 149.173 49.9974C149.147 50.055 149.121 50.1073 149.089 50.1649C148.32 51.6415 147.534 53.0709 146.733 54.4531C145.931 55.8354 145.181 57.0571 144.48 58.1182C143.908 59.0169 143.269 59.871 142.568 60.6733C141.983 61.3121 141.523 61.621 141.199 61.5949C140.875 61.5687 140.822 61.1341 140.906 60.1916C141.035 58.9991 141.236 57.8154 141.507 56.647C141.821 55.2228 142.202 53.6416 142.662 51.8928C143.122 50.144 143.592 48.4319 144.062 46.7616C144.533 45.0914 144.993 43.5625 145.431 42.1802C145.87 40.798 146.215 39.7456 146.477 39.0387C146.451 38.8816 146.299 38.7036 146.022 38.5151C145.736 38.3115 145.423 38.1493 145.092 38.0334C144.78 37.9158 144.452 37.8487 144.12 37.8345C143.812 37.8345 143.655 37.9025 143.639 38.0648C143.393 39.0335 143.195 39.777 143.038 40.311C142.881 40.8451 142.745 41.3058 142.63 41.7038C142.516 42.1017 142.395 42.5415 142.27 43.0075C142.145 43.4735 141.967 44.1227 141.747 44.9657C141.267 45.9762 140.734 47.0287 140.148 48.1072C139.563 49.1858 138.952 50.2435 138.319 51.1964C137.749 52.0657 137.1 52.8807 136.381 53.6311C135.875 54.2148 135.198 54.6235 134.447 54.7987C133.924 54.8825 133.7 54.5107 133.747 53.673C133.836 52.5916 134.046 51.5237 134.374 50.4896C134.797 49.0642 135.305 47.6654 135.895 46.3009C136.532 44.7825 137.194 43.3862 137.88 42.1122C138.435 41.0462 139.08 40.0302 139.809 39.0754C140.41 38.3057 140.854 38.0282 141.183 38.2062C141.325 38.3019 141.442 38.4302 141.525 38.5805C141.608 38.7307 141.654 38.8986 141.659 39.0701C141.703 39.5401 141.669 40.0143 141.559 40.4733C141.421 41.053 141.218 41.6151 140.953 42.1488C140.674 42.7156 140.323 43.2436 139.908 43.7196C139.673 44.0023 139.62 44.1908 139.762 44.2903C139.903 44.3898 140.106 44.4317 140.352 44.1908C141.045 43.4326 141.578 42.5422 141.92 41.5729C142.201 40.7881 142.321 39.9549 142.275 39.1225C142.236 38.457 142.014 37.8153 141.632 37.269C141.472 37.0295 141.254 36.8344 140.998 36.7017C140.742 36.569 140.457 36.503 140.169 36.5098C139.405 36.5664 138.676 36.8549 138.079 37.337C137.083 38.1273 136.225 39.0773 135.539 40.1487C134.999 40.9637 134.51 41.8118 134.076 42.6881C133.579 43.6729 133.137 44.685 132.754 45.7197C132.361 46.7621 132.029 47.8268 131.761 48.9083C131.508 49.8725 131.356 50.8604 131.306 51.8561C131.258 52.6477 131.357 53.4414 131.599 54.1966C131.697 54.5064 131.861 54.7913 132.079 55.0318C132.297 55.2722 132.565 55.4624 132.864 55.5893C133.199 55.7292 133.563 55.7893 133.925 55.7647C134.288 55.7402 134.64 55.6318 134.954 55.4479C135.755 54.9966 136.464 54.398 137.044 53.6834C137.798 52.7859 138.484 51.8339 139.098 50.8351C139.795 49.7356 140.448 48.6099 141.058 47.458C140.573 48.5602 140.173 49.698 139.861 50.8613C139.474 52.2122 139.155 53.5735 138.894 54.9505C138.646 56.2435 138.487 57.5521 138.419 58.867C138.332 59.8582 138.435 60.8569 138.722 61.8095C138.796 62.1191 138.971 62.3953 139.219 62.5951C139.466 62.7949 139.773 62.9071 140.091 62.9143C140.739 62.9143 141.643 62.3802 142.803 61.3121C143.493 60.6204 144.121 59.8687 144.679 59.0659C145.376 58.1095 146.073 57.0379 146.769 55.8511C147.466 54.6643 148.163 53.4094 148.86 52.0865C149.048 51.7305 149.225 51.3849 149.413 51.0393C149.509 51.3498 149.671 51.6355 149.888 51.8762C150.106 52.1169 150.374 52.3067 150.673 52.4321C150.982 52.5595 151.314 52.6185 151.648 52.6049C151.982 52.5914 152.309 52.5056 152.606 52.3535C153.337 51.9756 153.994 51.4683 154.545 50.8561C155.26 50.0835 155.904 49.2476 156.468 48.3586C157.099 47.3917 157.71 46.3724 158.302 45.3008L156.703 51.0603C154.961 52.275 153.145 53.5944 151.253 55.0186C149.311 56.4816 147.496 58.1071 145.829 59.8775C143.554 62.272 142.017 64.492 141.22 66.5375C140.486 68.2233 140.155 70.0574 140.253 71.8938C140.322 73.2346 140.867 74.5065 141.789 75.4804C142.55 76.2893 143.584 76.7857 144.689 76.8731C146.148 76.9573 147.587 76.5028 148.734 75.5956C150.041 74.5744 151.162 73.3345 152.047 71.9305C153.088 70.2938 153.963 68.5574 154.66 66.747C155.433 64.8062 156.13 62.8462 156.75 60.8671C157.37 58.8879 157.937 56.9803 158.449 55.1443C158.957 53.3082 159.407 51.7375 159.797 50.432L159.901 49.9922C161.149 49.2173 162.302 48.472 163.361 47.7564C164.382 47.062 165.352 46.2938 166.261 45.4579C167.092 44.6861 167.853 43.8416 168.534 42.9342C168.304 44.0809 168.101 45.2642 167.939 46.4946C167.775 47.6623 167.686 48.8393 167.672 50.0183C167.608 50.7485 167.772 51.4804 168.142 52.1127C168.449 52.5281 168.972 52.4111 169.71 51.7619C169.916 51.593 170.092 51.3913 170.233 51.165C170.444 50.8305 170.629 50.4804 170.787 50.1178C171.212 49.0043 171.682 47.7372 172.198 46.3166C172.72 44.9029 173.243 43.4525 173.818 41.9656C174.392 40.4786 174.962 39.0282 175.553 37.5988C176.143 36.1694 176.728 34.8971 177.293 33.7767C177.767 32.8002 178.325 31.8665 178.96 30.9859C179.482 30.2529 180.005 29.8445 180.486 29.766C180.966 29.6874 181.102 30.1115 180.909 31.0278C180.716 31.9441 180.386 33.1222 179.947 34.5725C179.508 36.0228 179.007 37.5936 178.479 39.2848C177.982 40.8347 177.613 42.423 177.376 44.0337C177.16 45.2554 177.233 46.5109 177.591 47.6988C177.939 48.6867 178.74 49.1789 179.994 49.1754C180.571 49.1155 181.102 48.8317 181.473 48.3847C182.097 47.7483 182.664 47.0579 183.166 46.3218C183.802 45.4032 184.385 44.4487 184.912 43.463C185.178 42.9708 185.434 42.4734 185.675 41.9813C185.675 42.2064 185.675 42.4368 185.675 42.6567C185.677 43.7975 185.99 44.9161 186.579 45.8925C186.839 46.2906 187.218 46.5955 187.663 46.763C188.107 46.9306 188.593 46.9521 189.051 46.8245C190.571 46.526 193.644 42.8138 193.644 42.8138L193.916 43.0284C195.839 44.4788 198.864 43.552 200.855 42.8347C201.148 42.8138 200.944 42.1436 200.704 42.285ZM191.381 30.7137C191.877 29.7703 192.486 28.8911 193.195 28.0957C193.717 27.5721 194.12 27.3365 194.417 27.4098C194.715 27.4831 194.841 27.7606 194.799 28.2528C194.727 29.0804 194.464 29.8799 194.031 30.588C193.564 31.4033 193.02 32.1714 192.405 32.8813C191.847 33.5362 191.235 34.1438 190.576 34.6982C190.166 35.0711 189.709 35.3896 189.218 35.6459C189.809 33.9475 190.532 32.2984 191.381 30.7137ZM154.989 56.893C154.498 58.5685 153.949 60.2719 153.343 62.0033C152.737 63.7346 152.087 65.4345 151.394 67.103C150.77 68.6245 150.038 70.0995 149.204 71.5168C148.547 72.6657 147.741 73.7221 146.806 74.6584C146.124 75.3899 145.19 75.8352 144.193 75.9045C143.772 75.8845 143.362 75.7625 142.998 75.5492C142.634 75.3358 142.327 75.0374 142.103 74.6793C141.432 73.6838 141.088 72.503 141.12 71.3022C141.145 69.6114 141.521 67.9443 142.223 66.4066C143.231 64.2114 144.644 62.227 146.388 60.5582C147.939 58.9707 149.591 57.4842 151.331 56.1077C152.962 54.8301 154.646 53.563 156.385 52.3064C155.949 53.6712 155.484 55.1896 154.989 56.8616V56.893ZM194.423 38.2533C195.515 38.557 193.733 42.1698 193.644 42.285C193.315 41.7771 192.374 37.6617 194.423 38.2219V38.2533Z" fill="#735745"/>
<path d="M135.936 56.8616C134.015 57.1835 132.14 57.7355 130.35 58.5057C128.892 54.9872 123.928 57.3852 123.29 57.6784C124.355 56.7856 125.288 55.7454 126.06 54.5893C126.87 53.3809 127.57 52.1017 128.15 50.7671C128.722 49.4636 129.18 48.1129 129.519 46.7302C129.816 45.5292 129.991 44.3013 130.042 43.0651C130.1 42.1129 129.983 41.1581 129.697 40.2482C129.606 39.9183 129.441 39.6137 129.215 39.3577C128.989 39.1017 128.706 38.9012 128.39 38.7717C127.723 38.5242 126.986 38.5486 126.337 38.8397C125.602 39.169 124.928 39.6185 124.34 40.1697C123.645 40.8087 123.008 41.5097 122.438 42.264C121.829 43.0594 121.268 43.8898 120.756 44.751C120.244 45.5993 119.784 46.43 119.376 47.2433C118.963 48.0601 118.618 48.7303 118.331 49.2591C118.853 47.3637 119.245 45.8139 119.596 44.6097C119.946 43.4054 120.238 42.3635 120.479 41.4996C120.719 40.6357 120.954 39.8869 121.174 39.2691C121.393 38.6513 121.618 37.9863 121.848 37.2795C122.078 36.5726 122.323 35.761 122.595 34.8291C122.867 33.8971 123.191 32.7347 123.557 31.2844C123.592 31.1399 123.576 30.9875 123.51 30.8542C123.444 30.7209 123.332 30.6155 123.196 30.5566C122.861 30.3612 122.489 30.2381 122.104 30.1953C121.702 30.1422 121.294 30.1689 120.902 30.2739C120.737 30.3047 120.582 30.3764 120.451 30.4825C120.321 30.5886 120.219 30.7256 120.155 30.8812C119.458 32.9756 118.862 34.9495 118.368 36.803C117.873 38.6565 117.404 40.5379 116.962 42.4473C116.512 44.3269 116.042 46.3061 115.546 48.369C115.46 48.4248 115.388 48.5001 115.337 48.5889C114.95 49.4581 114.396 50.6414 113.67 52.1284C112.943 53.6154 112.191 55.0971 111.396 56.5579C110.698 57.8685 109.925 59.1377 109.081 60.3592C108.325 61.4308 107.724 61.9544 107.279 61.9299C106.949 61.9299 106.793 61.4587 106.813 60.5896C106.943 59.0582 107.222 57.5432 107.644 56.0658C107.738 55.6521 107.937 54.9715 108.251 54.0342C108.564 53.097 108.883 52.0446 109.217 50.8927C109.552 49.7408 109.85 48.5313 110.111 47.3009C110.354 46.2264 110.489 45.1301 110.513 44.0285C110.547 43.2377 110.366 42.4526 109.991 41.7561C109.651 41.1854 109.05 40.9917 108.193 41.1749C107.451 41.3373 106.667 42.0127 105.852 43.196C104.926 44.578 104.12 46.0372 103.443 47.5575C102.656 49.2818 101.882 51.1528 101.123 53.1703C100.363 55.1879 99.6768 57.1077 99.0637 58.9298C98.4575 60.7414 97.921 62.3314 97.4542 63.6997C96.9943 65.0662 96.6546 65.9668 96.4456 66.4066C96.2366 66.8464 96.1739 66.7155 96.2784 66.1291C96.487 65.1815 96.7594 64.2492 97.0936 63.3384C97.2817 62.7834 97.5169 62.0347 97.7834 61.1027C98.0499 60.1707 98.306 59.1916 98.6038 58.1601C98.9017 57.1287 99.1578 56.1129 99.4399 55.1181L100.13 52.6782C100.422 51.5018 100.705 50.336 100.976 49.1806C101.228 48.1969 101.377 47.1897 101.42 46.1752C101.495 45.5105 101.332 44.8409 100.961 44.2851C100.626 43.8767 100.02 43.8086 99.1316 44.0756C98.2433 44.3426 97.3183 45.1699 96.3568 46.5627C95.2621 48.1657 94.2807 49.8435 93.4199 51.5839C92.4218 53.5421 91.4498 55.6574 90.4883 57.935C89.5268 60.2126 88.6332 62.3802 87.7971 64.4536C87.6194 64.8463 87.5462 64.9772 87.5776 64.7626C87.6089 64.5479 87.6925 64.1814 87.8389 63.574C87.9852 62.9667 88.1733 62.197 88.4294 61.265C88.6854 60.333 88.9519 59.3644 89.2812 58.3434C89.6104 57.3224 92.8921 45.882 93.1482 44.9919C93.1392 44.7613 93.0505 44.5411 92.8973 44.3688C92.3931 43.9103 91.8177 43.5372 91.1938 43.2641C91.0312 43.2115 90.8595 43.1932 90.6896 43.2103C90.5196 43.2274 90.355 43.2796 90.2061 43.3635C90.1538 43.5363 87.8545 51.5053 87.5567 52.5263C87.2588 53.5473 86.94 54.7306 86.6004 56.0972C86.2607 57.4637 85.9367 58.8774 85.6336 60.3382C85.3576 61.5909 85.1828 62.8639 85.111 64.1447C85.111 64.2652 85.111 64.3699 85.111 64.4851C84.9752 64.7259 84.8393 64.972 84.6982 65.2128C83.8934 66.6091 83.1444 67.8308 82.4511 68.878C81.8789 69.7765 81.2377 70.629 80.5333 71.4278C79.9532 72.0718 79.4882 72.3755 79.1694 72.3546C78.8506 72.3336 78.7879 71.8886 78.8767 70.9514C79.0066 69.7592 79.2055 68.5757 79.4725 67.4067C79.786 65.9825 80.1727 64.396 80.6326 62.6473C81.0925 60.8985 81.5593 59.1881 82.0331 57.5161C82.5034 55.8459 82.9633 54.3222 83.4022 52.9399C83.8412 51.5577 84.1861 50.5 84.4474 49.7984C84.4212 49.6414 84.2749 49.4633 83.998 49.2748C83.7126 49.0704 83.3993 48.9082 83.0678 48.7931C82.7548 48.6739 82.425 48.605 82.0906 48.5889C81.7875 48.5889 81.6255 48.657 81.615 48.8193C81.3694 49.788 81.1708 50.5367 81.0141 51.0655C80.8573 51.5943 80.7214 52.0603 80.6065 52.4635C80.4915 52.8666 80.3713 53.3012 80.2459 53.762C80.1205 54.2227 79.9428 54.8825 79.7233 55.7254C79.2425 56.7307 78.7078 57.7779 78.119 58.867C77.5303 59.956 76.9206 60.984 76.29 61.9509C75.7225 62.8226 75.0752 63.6394 74.3565 64.3908C73.8502 64.9726 73.1736 65.3794 72.423 65.5532C71.9004 65.6422 71.6757 65.2652 71.7175 64.4327C71.8116 63.3499 72.0236 62.2806 72.3498 61.244C72.7735 59.8189 73.2813 58.4202 73.8705 57.0553C74.508 55.5369 75.1717 54.1494 75.8511 52.8666C76.4094 51.8013 77.0544 50.7839 77.7794 49.8246C78.3803 49.0602 78.8245 48.7774 79.1537 48.9607C79.1537 48.9607 79.1851 48.9973 79.206 49.0078C78.0113 50.2509 77.2127 51.822 76.9119 53.5211C76.7603 54.3222 76.6767 56.6627 78.328 54.9662C79.0209 54.208 79.5541 53.3176 79.8958 52.3483C80.179 51.566 80.2999 50.7339 80.2511 49.9031C80.2254 49.5664 80.1587 49.2341 80.0525 48.9136C81.0053 48.1277 82.1239 47.5691 83.3238 47.28C85.4716 46.6517 87.9068 46.6778 87.4156 48.2329C87.1752 48.9816 88.0061 48.5889 87.9747 48.2329C87.5096 43.6201 79.8801 48.3586 79.8069 48.4214C79.739 48.301 79.692 48.1596 79.6136 48.0444C79.451 47.8072 79.2322 47.6142 78.9769 47.4826C78.7215 47.351 78.4375 47.285 78.1504 47.2904C77.3859 47.347 76.6568 47.6356 76.0601 48.1177C75.0611 48.9061 74.2009 49.8564 73.5152 50.9294C72.9746 51.7442 72.4859 52.5923 72.052 53.4688C71.5589 54.4556 71.1176 55.4675 70.7299 56.5003C70.3422 57.5429 70.0107 58.6055 69.737 59.6838C69.487 60.6486 69.3347 61.6362 69.2823 62.6316C69.2657 63.0458 69.2814 63.4607 69.3294 63.8725C68.8068 64.794 68.2842 65.6317 67.8191 66.3543C67.3859 67.0172 66.9001 67.644 66.3664 68.2287C65.9326 68.679 65.6191 68.8047 65.4258 68.5952C65.1436 68.3596 65.0861 67.7732 65.2585 66.836C65.431 65.8988 65.687 64.794 66.0424 63.506C66.3977 62.2179 66.8053 60.8199 67.2652 59.3172C67.7251 57.8146 68.1013 56.3747 68.4044 55.0134C68.6818 53.8217 68.867 52.6104 68.9583 51.3901C69.0263 50.343 68.8643 49.589 68.4723 49.1701C68.2135 48.9066 67.868 48.746 67.5 48.7181C67.1321 48.6902 66.7664 48.7968 66.4709 49.0183C65.5516 49.6207 64.7523 50.3896 64.1141 51.2854C63.2088 52.4773 62.3914 53.7338 61.6685 55.0448C60.8533 56.4899 60.0938 57.9053 59.3901 59.2911C58.6898 60.6786 58.0836 61.909 57.582 63.04C57.0803 64.1709 56.7354 64.9039 56.5368 65.2966C56.2076 65.993 55.8575 66.7784 55.4917 67.6423C55.1259 68.5062 54.7496 69.4016 54.3525 70.3126C53.9553 71.2236 53.5686 72.1451 53.1976 73.0719C52.8266 73.9986 52.4608 74.8573 52.1054 75.6427C52.405 73.297 52.8266 70.707 53.37 67.8727C53.9135 65.0383 54.6329 62.0382 55.5282 58.8722C56.8556 57.3224 58.2979 55.5771 59.8551 53.6363C61.4124 51.6956 62.9819 49.6396 64.5635 47.4685C66.0894 45.3218 67.5753 43.1017 69.021 40.8084C70.4668 38.5151 71.7436 36.2567 72.8515 34.0332C73.9065 31.9436 74.8196 29.785 75.5845 27.5721C76.2502 25.7158 76.6667 23.779 76.823 21.8127C76.8962 20.3047 76.7238 19.3099 76.3005 18.8125C76.062 18.5678 75.771 18.3807 75.4495 18.2655C75.1281 18.1502 74.7847 18.1099 74.4453 18.1476C72.9443 18.2326 71.5205 18.8421 70.4215 19.8702C68.8949 21.1959 67.5631 22.7312 66.4657 24.4306C65.0622 26.5388 63.8118 28.7453 62.7241 31.0331C61.5152 33.5323 60.3603 36.1625 59.2594 38.9235C58.1585 41.6846 57.1447 44.4927 56.218 47.348C55.2948 50.1998 54.4622 52.9382 53.7201 55.5631C53.1976 57.3747 52.7377 59.1131 52.3197 60.799C50.852 62.1929 49.308 63.5039 47.6949 64.7259C45.1552 66.6108 33.3817 71.4331 33.3973 63.485C33.3892 63.4319 33.3623 63.3834 33.3216 63.3484C33.2808 63.3133 33.2289 63.2941 33.1752 63.2941C33.1216 63.2941 33.0697 63.3133 33.0289 63.3484C32.9882 63.3834 32.9613 63.4319 32.9532 63.485C32.9532 67.4538 36.9561 68.6319 40.3632 68.1031C45.15 67.3596 48.7244 64.684 52.1263 61.5896C51.933 62.3855 51.7448 63.1604 51.5776 63.9353C51.0613 66.1811 50.667 68.4533 50.3966 70.7419C50.1737 72.2644 50.1737 73.8113 50.3966 75.3338C50.6265 76.4647 51.123 77.0302 51.8912 77.0197C52.0897 76.9883 52.304 76.7998 52.5287 76.4595C52.7639 76.1031 52.9667 75.7264 53.1349 75.3338C53.3091 74.9184 53.4554 74.5205 53.5738 74.14C53.6362 73.8937 53.7293 73.6562 53.8508 73.4332C54.1069 72.7839 54.4936 71.8624 55.0005 70.6424C55.5073 69.4225 56.077 68.0978 56.7093 66.637C57.3416 65.1762 58.0157 63.663 58.7473 62.0713C59.4789 60.4796 60.2314 58.9717 61.0048 57.5528C61.7105 56.2545 62.4869 54.996 63.3302 53.7829C63.9327 52.8711 64.6691 52.0555 65.5146 51.364C65.9483 51.0498 66.1678 51.0969 66.173 51.4949C66.1319 52.1364 66.0017 52.769 65.7863 53.3745C65.5198 54.2227 65.1854 55.249 64.7725 56.4428C64.3597 57.6365 63.9678 58.8774 63.5915 60.1445C63.2153 61.4116 62.8965 62.6734 62.6352 63.9039C62.3886 64.9604 62.2815 66.0447 62.3165 67.1292C62.3187 67.9068 62.5819 68.661 63.0637 69.2706C63.5131 69.7942 64.2709 69.9461 65.3369 69.7942C66.1626 69.6581 67.0405 68.946 67.9498 67.6632C68.5194 66.8726 69.0785 66.0087 69.6272 65.0872C69.7296 65.3791 69.8917 65.6463 70.1032 65.8717C70.3147 66.0971 70.5709 66.2757 70.8553 66.3961C71.1906 66.5364 71.5537 66.5972 71.9163 66.5736C72.279 66.5499 72.6312 66.4426 72.9456 66.26C73.7456 65.807 74.4545 65.2086 75.0359 64.4955C75.7852 63.596 76.4698 62.6441 77.0843 61.6472C77.7811 60.5407 78.4361 59.4132 79.0492 58.2648C78.5664 59.3684 78.1647 60.5059 77.8473 61.6682C77.4658 63.0242 77.1418 64.3856 76.8857 65.7574C76.6351 67.0517 76.4762 68.3622 76.4102 69.679C76.3214 70.6703 76.4244 71.6694 76.7133 72.6216C76.788 72.9298 76.9622 73.2047 77.2089 73.4035C77.4555 73.6023 77.7607 73.714 78.0772 73.7211C78.7322 73.7211 79.6362 73.1888 80.7894 72.1242C81.4799 71.4327 82.1078 70.681 82.6654 69.878C83.3604 68.9146 84.0554 67.8465 84.7557 66.6632L85.2783 65.7521C85.3358 66.0067 85.4404 66.2482 85.5866 66.4642C85.921 66.9093 86.5429 66.7993 87.4417 66.1239C88.0165 65.6666 88.6123 64.7311 89.2289 63.3175C89.8455 61.909 90.5249 60.2702 91.2721 58.4167C92.0194 56.5632 92.8399 54.6364 93.7544 52.6572C94.6045 50.7673 95.639 48.9661 96.8428 47.28C98.0656 45.6254 98.7014 45.3078 98.7501 46.327C98.7989 47.3463 98.3077 49.5139 97.2765 52.83C96.9072 54.0168 96.5101 55.3519 96.085 56.8354C95.6618 58.3172 95.275 59.8042 94.9354 61.2912C94.5957 62.7782 94.3083 64.1761 94.0784 65.4799C93.8735 66.5556 93.7599 67.6469 93.7387 68.7418C93.7387 69.611 93.8746 70.1712 94.1411 70.4278C94.4076 70.6843 94.8674 70.4801 95.5259 69.8047C96.129 69.0256 96.5988 68.1516 96.9159 67.2182C97.4664 65.8778 98.0673 64.2966 98.7188 62.4745C99.3703 60.6524 100.067 58.7029 100.809 56.626C101.558 54.5317 102.314 52.5525 103.077 50.6885C103.84 48.8246 104.591 47.177 105.329 45.7459C105.83 44.6571 106.54 43.6784 107.42 42.8661C107.843 42.5101 108.083 42.5415 108.13 42.9604C108.15 43.6171 108.065 44.2728 107.879 44.9029C107.66 45.786 107.36 46.8646 106.981 48.1387C106.604 49.4057 106.239 50.7566 105.878 52.097C105.517 53.4374 105.204 54.8196 104.937 56.1548C104.684 57.3474 104.56 58.5639 104.566 59.7832C104.547 60.7011 104.738 61.6112 105.126 62.4431C105.304 62.7808 105.576 63.0594 105.909 63.2453C106.242 63.4312 106.621 63.5163 107.002 63.4902C107.406 63.4902 107.902 63.1866 108.491 62.5792C109.162 61.8435 109.762 61.0458 110.283 60.1969C110.89 59.2282 111.517 58.1654 112.154 57.0135C112.792 55.8616 113.377 54.7359 113.905 53.6363C114.166 53.1127 114.427 52.5891 114.631 52.1022C114.344 53.1494 114.046 54.2803 113.717 55.4427C111.818 59.3871 110.262 63.0208 109.05 66.3438C107.993 69.1767 107.08 72.062 106.317 74.9882C105.794 76.9007 105.456 78.8592 105.308 80.8367C105.246 82.3027 105.402 83.1614 105.768 83.4232C106.27 83.7723 106.822 83.6204 107.425 82.9677C108.179 82.0558 108.808 81.0468 109.296 79.9675C110.036 78.4169 110.685 76.8242 111.24 75.1977C111.888 73.3616 112.523 71.4418 113.147 69.4382C113.771 67.4346 114.351 65.4328 114.887 63.4326C115.427 61.4325 115.906 59.6105 116.324 57.9664C116.742 56.3223 117.091 54.9558 117.369 53.8667C117.636 52.7776 117.787 52.1074 117.829 51.8561C118.686 50.1876 119.519 48.6169 120.327 47.1438C121.049 45.7985 121.848 44.4961 122.721 43.2431C123.377 42.274 124.135 41.3788 124.983 40.5728C125.529 39.9882 126.276 39.6343 127.074 39.5832C127.523 39.5832 127.732 40.0021 127.701 40.8084C127.63 41.8738 127.439 42.9278 127.131 43.95C126.783 45.238 126.326 46.6342 125.762 48.1387C125.198 49.6431 124.628 51.0987 124.053 52.5054C123.471 53.9016 122.912 55.1128 122.376 56.1391C122.047 56.846 121.636 57.512 121.153 58.1235C120.579 58.2569 120.02 58.45 119.486 58.6994C119.005 58.9258 118.541 59.1847 118.096 59.4743C117.746 59.6981 117.434 59.9755 117.171 60.2964C117.074 60.398 117 60.5193 116.954 60.6521C116.908 60.7849 116.891 60.9261 116.904 61.066C116.904 61.2231 117.108 61.2807 117.427 61.244C117.848 61.1877 118.258 61.0695 118.644 60.8932C119.201 60.6426 119.74 60.3557 120.259 60.0346C120.857 59.6932 121.422 59.2971 121.947 58.8513C126.389 56.0344 129.112 57.0658 129.969 58.6994C128.837 59.1473 127.826 59.8537 127.016 60.7623C125.757 62.4274 125.971 65.6055 128.584 65.2286C131.103 64.8673 131.197 61.7991 130.909 59.8304C130.862 59.5138 130.782 59.2031 130.669 58.9036L131.458 58.5633C132.932 57.9454 134.531 57.2229 136.083 57.3852C136.459 57.4166 136.292 56.8145 135.936 56.8616ZM79.5561 49.4267C79.6106 49.5505 79.6492 49.6806 79.6711 49.8141C79.7133 50.2862 79.678 50.762 79.5665 51.2226C79.4306 51.8012 79.2271 52.3618 78.9604 52.8928C78.6979 53.469 78.345 53.9993 77.9152 54.4636C76.8857 55.3694 77.7375 50.2697 79.5561 49.4267ZM57.4565 52.6206C58.1254 50.4145 58.9389 47.9222 59.897 45.1437C60.855 42.3652 61.9176 39.475 63.0846 36.4731C64.2482 33.4782 65.4676 30.7172 66.7426 28.19C67.8278 25.9571 69.1245 23.8338 70.6149 21.8493C71.937 20.1372 73.2016 19.179 74.4244 18.9801C75.0933 18.8649 75.5636 19.1843 75.8302 19.9225C76.0967 20.6608 76.0862 21.9069 75.804 23.6452C75.4696 25.4867 74.9568 27.2912 74.2729 29.0329C73.5118 31.0197 72.6395 32.9618 71.66 34.85C70.6149 36.8327 69.4757 38.8258 68.2424 40.8294C67.0091 42.833 65.694 44.8052 64.297 46.7459C62.9035 48.6832 61.51 50.5454 60.1164 52.3326C58.7229 54.1198 57.3573 55.7865 56.0195 57.3329C56.3121 56.4009 56.7911 54.8301 57.4565 52.6206ZM110.168 69.4591C109.384 72.5518 108.726 75.0685 108.193 77.0093C107.67 78.9518 107.242 80.3759 106.923 81.2713C106.604 82.1666 106.364 82.596 106.192 82.5436C106.019 82.4912 105.878 81.9205 105.977 80.6744C106.158 78.9388 106.473 77.2198 106.918 75.5328C107.441 73.3442 108.219 70.7838 109.228 67.8308C110.236 64.8777 111.532 61.6839 113.11 58.2387C111.936 62.6124 110.956 66.3525 110.168 69.4591ZM130.057 63.5688C128.568 66.1867 125.877 64.6945 127.209 61.5687C127.685 60.4587 128.986 59.7047 130.199 59.1497C130.364 59.7708 130.462 60.4081 130.491 61.0503C130.598 61.9075 130.447 62.7773 130.057 63.5478V63.5688Z" fill="#735745"/>
<path d="M52.8475 36.4731C52.4294 35.391 51.5114 34.5481 50.0935 33.9442C48.3843 33.3069 46.5487 33.0844 44.7371 33.295C42.8198 33.4174 40.9299 33.8141 39.1247 34.473C37.2691 35.1476 35.4881 36.0126 33.8102 37.0543C32.0809 38.1256 30.4524 39.3524 28.945 40.7194C27.4346 42.0919 26.0366 43.5837 24.7645 45.1804C22.4586 44.8855 20.121 44.9508 17.8352 45.3741C15.0969 45.8035 10.9895 46.7093 8.09442 48.1177C5.09271 49.6991 2.54523 52.0244 0.694803 54.872C-0.538466 56.9663 -0.219698 59.8984 2.37748 61.155C5.68536 62.752 9.74574 59.0607 10.8588 57.0239C11.9719 54.9872 12.1025 50.4058 8.36093 51.055C7.73921 51.1256 7.1678 51.4312 6.76334 51.9095C6.35887 52.3878 6.15184 53.0027 6.18452 53.6288C6.21719 54.2548 6.48711 54.8448 6.93916 55.2782C7.39121 55.7117 7.99132 55.9559 8.61699 55.9611C8.87828 55.9611 8.83124 55.715 8.61699 55.6364C4.15945 54.1076 9.47923 48.8298 11.0626 53.2436C11.3187 53.9557 11.2194 57.3276 7.60843 59.3277C5.51814 60.4744 3.42785 60.9456 1.76607 58.8879C0.992668 57.9454 -0.0786038 53.7515 8.89395 48.7303C11.5068 47.2643 14.5743 46.8087 17.1819 46.3899C19.4169 46.0467 21.6933 46.0785 23.9179 46.4841C22.3872 48.562 21.0192 50.7554 19.8262 53.0447C18.4583 55.637 17.2455 58.3085 16.1943 61.0451C15.1153 63.8528 14.1907 66.7176 13.4246 69.6267C12.6869 72.3928 12.2093 75.2221 11.998 78.0774C11.7925 80.5847 11.9385 83.1085 12.4318 85.5752C12.8316 87.7031 13.7811 89.6889 15.1857 91.3346C16.6596 92.9513 18.5899 94.0799 20.7197 94.5704C23.0539 95.1778 25.989 95.1411 29.5251 94.4604C31.0658 94.1521 32.5666 93.669 33.9983 93.0206C35.5897 92.3039 37.1236 91.4654 38.5865 90.5126C40.2113 89.4603 41.7151 88.2311 43.0701 86.8475C44.3223 85.6056 45.3968 84.196 46.2631 82.6588C47.0123 81.3451 47.5186 79.9065 47.7576 78.4125C47.9785 77.1171 47.7615 75.7848 47.141 74.6269C46.4065 73.6323 45.3987 72.8735 44.2407 72.4436C43.1345 72.0409 41.9538 71.8855 40.7813 71.9881C39.6141 72.0888 38.4717 72.3825 37.4002 72.8572C36.3816 73.297 35.4585 73.9319 34.6829 74.7264C33.9439 75.4293 33.3554 76.2755 32.9532 77.2135C32.6058 77.9786 32.4652 78.8219 32.5455 79.6586C32.6339 80.3797 32.9949 81.0393 33.5541 81.5017C34.1342 81.9938 35.0173 82.2294 36.2192 82.2085C36.3534 82.2302 36.4909 82.2044 36.6082 82.1357C36.7255 82.0669 36.8152 81.9593 36.862 81.8315C36.9717 81.5645 36.6791 81.3917 35.9788 81.3079C35.6329 81.3045 35.2915 81.2287 34.9765 81.0853C34.6616 80.942 34.38 80.7342 34.1498 80.4754C33.7731 79.9876 33.5873 79.3788 33.6273 78.7633C33.6824 78.0145 33.9057 77.2878 34.2805 76.6375C34.709 75.8618 35.2861 75.1786 35.9788 74.6269C36.8038 73.9378 37.7658 73.4327 38.8007 73.1452C39.7703 72.872 40.7805 72.7727 41.7846 72.852C42.7011 72.9188 43.5924 73.1831 44.3975 73.6269C45.1094 74.0037 45.6907 74.5879 46.0645 75.3024C46.6116 76.3847 46.8141 77.6091 46.6445 78.8104C46.4604 80.1739 45.996 81.4843 45.2806 82.6588C44.4621 84.0358 43.4871 85.3131 42.3751 86.4653C41.1626 87.7329 39.7989 88.846 38.3147 89.7796C36.8038 90.7712 35.205 91.6212 33.5384 92.319C32.1223 92.9105 30.6522 93.3629 29.1488 93.6698C25.8113 94.3086 23.1689 94.0695 21.2214 92.9525C19.2584 91.8138 17.79 89.9823 17.1036 87.8161C16.3058 85.5158 16.034 82.7391 16.2883 79.4858C16.5926 75.965 17.2242 72.4802 18.1748 69.0769C19.2382 65.2216 20.5616 61.4431 22.1359 57.7674C23.7461 53.9725 25.5926 50.2826 27.6647 46.7197C29.3648 47.0129 31.058 47.2782 32.7441 47.5156C34.4316 47.7514 36.1363 47.8408 37.8392 47.7826C39.5846 47.7175 41.3153 47.4361 42.9918 46.9449C44.8152 46.3944 46.5389 45.5547 48.0973 44.4578C50.2224 43.0127 51.6473 41.5851 52.3719 40.1749C53.0965 38.7647 53.2551 37.5308 52.8475 36.4731ZM51.541 40.0963C50.8829 41.2465 49.9931 42.2468 48.9282 43.0337C47.4391 44.2417 45.7451 45.171 43.9272 45.7773C42.2363 46.3343 40.479 46.6635 38.7014 46.7564C36.9569 46.8451 35.208 46.7767 33.4757 46.5522C31.7408 46.3218 30.0947 46.0286 28.5426 45.7249C29.7351 43.9219 31.1582 42.2831 32.7755 40.8503C34.4173 39.3636 36.2109 38.0543 38.1266 36.9444C39.8453 35.944 41.6722 35.143 43.5718 34.5568C45.0372 34.0535 46.6021 33.9116 48.1339 34.1432C49.1412 34.308 50.0905 34.7259 50.893 35.3579C51.5432 35.8821 51.9784 36.6275 52.1159 37.4522C52.2052 38.3675 51.9981 39.2872 51.5254 40.0754L51.541 40.0963Z" fill="#735745"/>
</svg>
