<svg width="236" height="85" viewBox="0 0 236 85" fill="none" xmlns="http://www.w3.org/2000/svg">
<path d="M68.1253 0.431014C68.1265 0.356038 68.1568 0.28455 68.2096 0.231967C68.2624 0.179384 68.3335 0.14992 68.4076 0.14993H74.2849C74.3585 0.14993 74.4291 0.179544 74.4812 0.232257C74.5333 0.284971 74.5625 0.356466 74.5625 0.431014V1.24616C74.5625 1.32071 74.5333 1.3922 74.4812 1.44491C74.4291 1.49763 74.3585 1.52724 74.2849 1.52724H69.6293V4.99394H73.5629C73.6363 4.99622 73.7061 5.02642 73.7584 5.07853C73.8108 5.13063 73.8418 5.2008 73.8452 5.27502V6.09485C73.8429 6.16945 73.8122 6.24026 73.7596 6.29259C73.7071 6.34493 73.6366 6.37477 73.5629 6.37594H69.6293V10.2877C69.6282 10.3623 69.5987 10.4336 69.547 10.4868C69.4953 10.54 69.4254 10.5711 69.3517 10.5735H68.4076C68.3327 10.5735 68.2609 10.5433 68.208 10.4898C68.1551 10.4362 68.1253 10.3635 68.1253 10.2877V0.431014Z" fill="white"/>
<path d="M77.9963 10.1753L82.5084 0.163985C82.5354 0.119595 82.5718 0.0818512 82.6151 0.053491C82.6583 0.0251307 82.7072 0.00686523 82.7583 1.87644e-05H82.9064C82.9574 0.00686523 83.0063 0.0251307 83.0496 0.053491C83.0928 0.0818512 83.1292 0.119595 83.1563 0.163985L87.6359 10.1753C87.6588 10.2169 87.6701 10.2642 87.6685 10.3119C87.6668 10.3596 87.6524 10.4059 87.6267 10.4459C87.601 10.4859 87.565 10.518 87.5226 10.5388C87.4802 10.5597 87.433 10.5684 87.386 10.5641H86.4605C86.3879 10.5677 86.316 10.5479 86.2553 10.5075C86.1945 10.4671 86.1481 10.4081 86.1226 10.3392L85.1971 8.30136H80.4074C80.1112 8.98533 79.8058 9.65525 79.5096 10.3392C79.4809 10.4058 79.4337 10.4625 79.3737 10.5025C79.3137 10.5424 79.2435 10.5638 79.1718 10.5641H78.2462C78.1998 10.5668 78.1534 10.5571 78.1119 10.5358C78.0703 10.5146 78.0351 10.4826 78.0097 10.4431C77.9843 10.4036 77.9697 10.3581 77.9674 10.311C77.965 10.264 77.975 10.2171 77.9963 10.1753ZM84.6556 7.02243L82.8462 2.94671H82.7722L80.9812 7.02243H84.6556Z" fill="white"/>
<path d="M91.3798 9.06029C91.5093 8.86821 91.6297 8.64335 91.7592 8.45127C91.7814 8.40716 91.8127 8.36843 91.851 8.33777C91.8894 8.3071 91.9339 8.28522 91.9814 8.27364C92.0289 8.26206 92.0783 8.26105 92.1263 8.27069C92.1742 8.28033 92.2195 8.30039 92.259 8.32947C92.347 8.40442 93.4808 9.36011 94.6099 9.36011C95.628 9.36011 96.2713 8.73236 96.2713 7.95469C96.2713 7.06459 95.5077 6.49774 94.0546 5.88872C92.6015 5.27971 91.3798 4.47862 91.3798 2.75464C91.3798 1.59283 92.259 1.87644e-05 94.6192 1.87644e-05C95.592 0.0163164 96.5386 0.322668 97.3403 0.880748C97.3777 0.909557 97.409 0.945769 97.4322 0.987184C97.4554 1.0286 97.47 1.07435 97.4752 1.12167C97.4804 1.16899 97.4761 1.21688 97.4624 1.26244C97.4488 1.308 97.4261 1.35027 97.3958 1.3867C97.2755 1.56472 97.1459 1.77085 97.0256 1.94887C97.0052 1.99625 96.9747 2.03849 96.9364 2.07257C96.898 2.10666 96.8526 2.13176 96.8036 2.14608C96.7545 2.16039 96.703 2.16358 96.6525 2.1554C96.6021 2.14723 96.5541 2.12789 96.5119 2.09878C95.9198 1.69416 95.2407 1.43877 94.5313 1.35391C93.2957 1.35391 92.8699 2.14094 92.8699 2.69374C92.8699 3.54168 93.5132 4.06168 94.721 4.56763C96.424 5.26566 97.8818 6.08548 97.8818 7.89847C97.8818 9.44912 96.4934 10.7093 94.6053 10.7093C93.4463 10.7197 92.323 10.3035 91.4446 9.53813C91.3335 9.41633 91.2317 9.31326 91.3798 9.06029Z" fill="white"/>
<path d="M102.866 0.431014C102.869 0.357568 102.9 0.288044 102.951 0.236054C103.002 0.184064 103.071 0.153352 103.144 0.14993H104.115C104.189 0.14993 104.26 0.179544 104.312 0.232257C104.364 0.284971 104.393 0.356466 104.393 0.431014V4.58168H109.775V0.431014C109.775 0.356466 109.804 0.284971 109.856 0.232257C109.908 0.179544 109.979 0.14993 110.053 0.14993H111.02C111.093 0.152206 111.163 0.182413 111.215 0.234518C111.268 0.286623 111.299 0.356792 111.302 0.431014V10.2689C111.3 10.344 111.269 10.4153 111.217 10.4684C111.165 10.5215 111.094 10.5524 111.02 10.5547H110.053C110.016 10.5547 109.979 10.5473 109.945 10.5329C109.911 10.5185 109.881 10.4973 109.855 10.4707C109.829 10.4441 109.809 10.4126 109.795 10.378C109.781 10.3433 109.774 10.3063 109.775 10.2689V5.98242H104.393V10.2783C104.394 10.3156 104.387 10.3527 104.373 10.3873C104.36 10.422 104.339 10.4535 104.313 10.4801C104.287 10.5067 104.257 10.5278 104.223 10.5423C104.189 10.5567 104.152 10.5641 104.115 10.5641H103.144C103.07 10.5606 103.001 10.5292 102.949 10.4762C102.898 10.4233 102.868 10.3526 102.866 10.2783V0.431014Z" fill="white"/>
<path d="M117.082 0.431014C117.086 0.356792 117.117 0.286623 117.169 0.234518C117.221 0.182413 117.291 0.152206 117.365 0.14993H118.332C118.405 0.152206 118.475 0.182413 118.527 0.234518C118.58 0.286623 118.611 0.356792 118.614 0.431014V10.2689C118.612 10.344 118.581 10.4153 118.529 10.4684C118.476 10.5215 118.406 10.5524 118.332 10.5547H117.365C117.29 10.5524 117.22 10.5215 117.168 10.4684C117.115 10.4153 117.085 10.344 117.082 10.2689V0.431014Z" fill="white"/>
<path d="M128.925 1.84037e-05C129.971 -0.00275759 130.994 0.308571 131.866 0.894636C132.737 1.4807 133.417 2.31518 133.82 3.29254C134.223 4.26991 134.331 5.34627 134.129 6.3855C133.928 7.42474 133.426 8.38018 132.689 9.131C131.951 9.88183 131.01 10.3943 129.984 10.6036C128.959 10.813 127.895 10.7098 126.927 10.3071C125.96 9.90435 125.132 9.22023 124.548 8.34122C123.965 7.4622 123.652 6.42776 123.649 5.36872C123.646 4.66519 123.78 3.96798 124.044 3.31706C124.308 2.66614 124.696 2.07432 125.186 1.57555C125.676 1.07677 126.258 0.680845 126.9 0.41048C127.542 0.140115 128.23 0.000628241 128.925 1.84037e-05ZM128.925 9.22425C129.682 9.22796 130.423 9.00381 131.055 8.58026C131.686 8.1567 132.179 7.55282 132.471 6.84526C132.762 6.1377 132.84 5.35835 132.693 4.60611C132.547 3.85387 132.183 3.16265 131.648 2.62016C131.113 2.07768 130.43 1.70838 129.687 1.55914C128.944 1.40989 128.174 1.48743 127.475 1.78191C126.776 2.07639 126.179 2.57454 125.759 3.21314C125.34 3.85173 125.118 4.602 125.121 5.36872C125.128 6.38688 125.531 7.36111 126.243 8.0802C126.956 8.79929 127.919 9.20529 128.925 9.2102V9.22425Z" fill="white"/>
<path d="M139.249 0.267048C139.254 0.194551 139.286 0.126591 139.338 0.0769873C139.391 0.0273838 139.46 -0.000137825 139.531 1.85334e-05H139.897L146.274 7.46748V0.440383C146.275 0.365408 146.306 0.293919 146.358 0.241336C146.411 0.188753 146.482 0.159289 146.556 0.159299H147.482C147.555 0.161644 147.624 0.192011 147.676 0.244224C147.727 0.296438 147.757 0.366579 147.76 0.440383V10.4423C147.757 10.5148 147.727 10.5834 147.675 10.6333C147.623 10.6833 147.554 10.7106 147.482 10.7093H147.098L140.749 3.03572V10.2783C140.749 10.3533 140.719 10.4253 140.668 10.4787C140.616 10.5322 140.545 10.5629 140.471 10.5641H139.545C139.471 10.5617 139.401 10.5309 139.348 10.4778C139.296 10.4247 139.265 10.3534 139.263 10.2783L139.249 0.267048Z" fill="white"/>
<path d="M235.738 37.8339C234.16 38.7708 232.67 39.3518 231.008 38.9395C230.516 38.7896 230.066 38.5212 229.699 38.1572C230.06 37.4216 232.29 33.8613 229.824 33.7394C228.532 33.6739 228.042 36.6065 229.213 38.0494L229.259 38.1009L229.051 38.368C228.456 39.1203 227.745 39.7704 226.945 40.2934C226.773 40.4245 226.576 40.5194 226.367 40.5725C226.158 40.6256 225.941 40.6358 225.728 40.6026C225.558 40.5473 225.401 40.4549 225.27 40.3319C225.139 40.2089 225.036 40.0582 224.969 39.8905C224.765 39.4477 224.64 38.972 224.599 38.4851C224.541 37.8951 224.526 37.3018 224.553 36.7096C224.572 36.1193 224.629 35.5309 224.724 34.9481C224.794 34.4731 224.896 34.0036 225.029 33.5427L225.274 32.7416C225.859 32.4677 226.408 32.1215 226.908 31.711C227.602 31.154 228.243 30.533 228.824 29.8558C229.455 29.1421 230.002 28.3559 230.453 27.5134C230.886 26.7358 231.14 25.8696 231.198 24.979C231.249 24.7482 231.232 24.5075 231.15 24.2863C231.067 24.065 230.923 23.8727 230.735 23.7329C230.52 23.6291 230.286 23.5702 230.047 23.5597C229.809 23.5493 229.571 23.5874 229.347 23.672C228.174 24.0991 227.15 24.8626 226.399 25.8691C225.496 27.0169 224.755 28.2861 224.196 29.6403C223.599 31.0698 223.149 32.5581 222.854 34.0814C222.734 34.6904 222.651 35.262 222.586 35.8148C221.804 37.3748 221.091 38.7146 220.462 39.8249C219.265 41.9393 218.381 43.0074 217.81 43.0293C217.491 43.0293 217.347 42.6685 217.347 41.8909C217.454 40.4835 217.703 39.0911 218.092 37.7355C218.244 37.1464 218.428 36.5662 218.643 35.9975C218.924 35.2105 219.201 34.3344 219.476 33.3694C219.75 32.4043 220 31.4065 220.226 30.3758C220.437 29.4792 220.548 28.5616 220.559 27.6399C220.594 26.9824 220.433 26.3295 220.096 25.766C219.786 25.2976 219.249 25.1477 218.481 25.2976C217.574 25.4537 216.708 26.1861 215.885 27.4947C214.942 29.0296 214.124 30.6404 213.441 32.3106C212.639 34.2126 211.849 36.2833 211.072 38.5226C210.294 40.7619 209.523 42.884 208.758 44.8891C208.522 45.4279 208.448 45.4138 208.536 44.8423C208.624 44.2707 208.786 43.4368 209.026 42.2703C209.267 41.1038 209.563 39.8577 209.91 38.4429C210.257 37.0281 212.483 28.5675 212.793 27.3963C212.842 27.2566 212.847 27.1054 212.809 26.9625C212.771 26.8196 212.692 26.6916 212.581 26.5952C212.352 26.3777 212.076 26.2173 211.775 26.1268C211.475 26.0366 211.156 26.0253 210.85 26.094C210.721 26.1094 210.599 26.1616 210.498 26.2446C210.397 26.3275 210.322 26.4378 210.281 26.5624C210.23 26.7124 208.203 34.3906 207.999 35.2386C207.879 35.7398 207.754 36.2973 207.624 36.897C207.384 37.3108 207.121 37.7111 206.837 38.0962C206.225 38.9232 205.528 39.6831 204.76 40.3637C204.033 41.0036 203.26 41.5862 202.446 42.1064C201.631 42.6217 200.82 43.1448 200.012 43.6758C200.359 42.4999 200.655 41.4786 200.909 40.6073C201.164 39.7359 201.4 38.8927 201.627 38.0775C201.853 37.2624 202.089 36.4332 202.344 35.5759C202.598 34.7186 202.941 33.5567 203.269 32.3902C204.658 27.1761 204.366 27.3776 204.172 27.1761C204 26.9863 203.776 26.8526 203.529 26.792C203.265 26.7311 202.043 29.2046 201.145 31.5564L198.855 38.4663C198.424 39.333 197.966 40.1997 197.466 41.0757C196.966 41.9518 196.485 42.7529 195.981 43.4884C195.521 44.1593 195.002 44.7865 194.43 45.3623C194.014 45.8316 193.465 46.1588 192.857 46.2992C192.394 46.3742 192.195 46.0369 192.237 45.292C192.318 44.3248 192.504 43.3695 192.792 42.4437C193.166 41.1604 193.616 39.901 194.139 38.6725C194.704 37.3139 195.29 36.0646 195.897 34.9247C196.376 33.9578 196.937 33.0346 197.573 32.1654C198.105 31.4814 198.498 31.2284 198.79 31.3924C198.917 31.4768 199.021 31.5915 199.093 31.7263C199.166 31.8611 199.205 32.0119 199.206 32.1654C199.246 32.5875 199.216 33.0132 199.118 33.4256C198.996 33.9427 198.816 34.444 198.582 34.92C198.334 35.4269 198.023 35.8993 197.656 36.3254C197.448 36.5784 197.401 36.747 197.526 36.8314C197.661 36.9907 197.832 36.9625 198.049 36.747C198.642 36.0576 199.105 35.2636 199.415 34.4047C199.682 33.707 199.799 32.9594 199.757 32.2122C199.727 31.6187 199.537 31.045 199.206 30.5538C199.063 30.3407 198.87 30.1673 198.643 30.0494C198.417 29.9316 198.165 29.8731 197.911 29.8792C197.234 29.9299 196.588 30.1881 196.059 30.6194C195.178 31.3264 194.418 32.1765 193.81 33.1351C193.334 33.8654 192.901 34.6241 192.515 35.4072C191.632 37.181 190.945 39.0473 190.464 40.9727C190.241 41.8338 190.106 42.7161 190.062 43.6055C190.047 43.9824 190.061 44.3598 190.104 44.7345C190.08 44.786 190.057 44.8329 190.029 44.8844C189.348 46.2055 188.652 47.4844 187.942 48.7212C187.233 49.958 186.568 51.0511 185.948 52.0005C185.441 52.8046 184.875 53.5688 184.254 54.2867C183.736 54.8582 183.329 55.1346 183.042 55.1112C182.755 55.0878 182.708 54.6989 182.782 53.8557C182.897 52.7887 183.075 51.7296 183.315 50.6841C183.592 49.4099 183.93 47.9951 184.337 46.4304C184.745 44.8657 185.161 43.3338 185.578 41.8393C185.994 40.3449 186.401 38.977 186.79 37.7402C187.179 36.5034 187.484 35.5618 187.716 34.9294C187.692 34.7888 187.558 34.6295 187.313 34.4609C187.06 34.2787 186.783 34.1336 186.489 34.0299C186.213 33.9247 185.923 33.8646 185.629 33.8519C185.355 33.8519 185.217 33.9128 185.203 34.058C184.985 34.9247 184.809 35.5899 184.671 36.0678C184.532 36.5456 184.411 36.9579 184.31 37.3139C184.208 37.6699 184.101 38.0635 183.99 38.4804C183.879 38.8973 183.722 39.4782 183.528 40.2325C183.102 41.1366 182.63 42.0783 182.111 43.0433C181.593 44.0084 181.052 44.9547 180.492 45.8073C179.986 46.5851 179.412 47.3143 178.775 47.9857C178.327 48.508 177.728 48.8736 177.063 49.0304C176.6 49.1054 176.401 48.7728 176.442 48.0232C176.521 47.0556 176.707 46.1002 176.998 45.1749C177.372 43.8995 177.822 42.648 178.344 41.4271C178.909 40.0685 179.495 38.8193 180.103 37.6793C180.594 36.7256 181.165 35.8165 181.811 34.9622C182.343 34.2735 182.736 34.0252 183.028 34.1845C183.154 34.2701 183.257 34.3849 183.331 34.5194C183.404 34.6538 183.444 34.804 183.449 34.9575C183.488 35.378 183.458 35.8022 183.361 36.213C183.239 36.7316 183.058 37.2345 182.824 37.7121C182.577 38.2192 182.266 38.6917 181.899 39.1175C181.69 39.3705 181.644 39.5391 181.769 39.6282C181.894 39.7172 182.074 39.7546 182.292 39.5391C182.905 38.8607 183.378 38.0641 183.68 37.1968C183.929 36.4946 184.036 35.7491 183.995 35.0043C183.96 34.4089 183.763 33.8348 183.426 33.3459C183.283 33.1316 183.09 32.9571 182.864 32.8383C182.637 32.7196 182.385 32.6606 182.13 32.6666C181.453 32.7173 180.807 32.9755 180.279 33.4068C179.397 34.1139 178.637 34.9639 178.03 35.9225C177.551 36.6517 177.119 37.4106 176.734 38.1946C176.294 39.0757 175.903 39.9813 175.563 40.9071C175.215 41.8398 174.921 42.7924 174.684 43.7601C174.46 44.6228 174.325 45.5067 174.281 46.3976C174.238 47.1059 174.326 47.816 174.54 48.4917C174.627 48.7689 174.772 49.0238 174.966 49.2389C175.159 49.454 175.396 49.6242 175.66 49.7378C175.958 49.863 176.279 49.9167 176.601 49.8948C176.922 49.8728 177.234 49.7758 177.511 49.6113C178.221 49.2075 178.849 48.6719 179.363 48.0326C180.03 47.2295 180.638 46.3777 181.181 45.4841C181.798 44.5003 182.377 43.4931 182.917 42.4624C182.487 43.4486 182.133 44.4666 181.857 45.5075C181.514 46.7162 181.232 47.9342 181.001 49.1663C180.781 50.3231 180.64 51.494 180.58 52.6704C180.503 53.5573 180.594 54.4509 180.848 55.3033C180.914 55.5803 181.069 55.8273 181.288 56.0061C181.508 56.1849 181.779 56.2853 182.061 56.2917C182.634 56.2917 183.435 55.8139 184.462 54.8582C185.074 54.2393 185.63 53.5668 186.124 52.8485C186.741 51.9927 187.358 51.0339 187.975 49.972C188.592 48.9102 189.209 47.7874 189.826 46.6037C189.992 46.2852 190.15 45.976 190.316 45.6668C190.401 45.9446 190.544 46.2002 190.737 46.4155C190.93 46.6309 191.167 46.8007 191.432 46.9129C191.705 47.0269 192 47.0797 192.295 47.0676C192.591 47.0554 192.88 46.9787 193.144 46.8426C193.791 46.5045 194.373 46.0506 194.861 45.5028C195.494 44.8116 196.064 44.0636 196.564 43.2682C197.122 42.4031 197.664 41.4911 198.188 40.5323L196.772 45.6855C195.23 46.7724 193.621 47.9529 191.945 49.2272C190.226 50.5362 188.619 51.9906 187.142 53.5746C185.127 55.7171 183.767 57.7034 183.06 59.5336C182.41 61.0419 182.117 62.6829 182.204 64.326C182.265 65.5257 182.748 66.6637 183.565 67.5351C184.238 68.2588 185.154 68.703 186.133 68.7812C187.425 68.8566 188.699 68.4499 189.715 67.6382C190.872 66.7245 191.865 65.615 192.649 64.3588C193.57 62.8944 194.345 61.3408 194.963 59.721C195.648 57.9845 196.265 56.2308 196.814 54.46C197.363 52.6892 197.864 50.9824 198.318 49.3396C198.768 47.6968 199.166 46.2914 199.512 45.1233L199.604 44.7298C200.709 44.0365 201.73 43.3697 202.668 42.7294C203.572 42.1081 204.431 41.4207 205.236 40.6729C205.972 39.9823 206.646 39.2267 207.249 38.4148C207.046 39.4408 206.865 40.4995 206.722 41.6004C206.577 42.6452 206.498 43.6983 206.486 44.7533C206.429 45.4065 206.575 46.0615 206.902 46.6271C207.174 46.9988 207.637 46.8942 208.291 46.3133C208.473 46.1621 208.629 45.9817 208.753 45.7792C208.94 45.4799 209.104 45.1667 209.244 44.8423C209.62 43.846 210.037 42.7123 210.493 41.4411C210.956 40.1763 211.419 38.8786 211.928 37.5481C212.437 36.2177 212.941 34.92 213.464 33.6411C213.987 32.3621 214.506 31.2237 215.005 30.2212C215.426 29.3476 215.92 28.5122 216.482 27.7243C216.944 27.0684 217.407 26.703 217.833 26.6327C218.259 26.5624 218.379 26.9419 218.208 27.7617C218.037 28.5816 217.745 29.6356 217.356 30.9333C216.968 32.231 216.523 33.6364 216.056 35.1496C215.615 36.5363 215.289 37.9575 215.08 39.3986C214.888 40.4916 214.953 41.615 215.269 42.6779C215.578 43.5618 216.287 44.0021 217.398 43.999C217.909 43.9454 218.379 43.6915 218.708 43.2916C219.26 42.7221 219.762 42.1045 220.207 41.4458C220.77 40.6239 221.286 39.7698 221.753 38.888C221.989 38.4476 222.215 38.0026 222.428 37.5622C222.428 37.7636 222.428 37.9698 222.428 38.1665C222.431 39.1873 222.707 40.1881 223.229 41.0617C223.459 41.4179 223.795 41.6907 224.189 41.8406C224.582 41.9905 225.013 42.0098 225.418 41.8956C226.765 41.6285 229.486 38.3071 229.486 38.3071L229.726 38.4991C231.429 39.7968 234.109 38.9676 235.872 38.3258C236.131 38.3071 235.951 37.7074 235.738 37.8339ZM227.482 27.4806C227.921 26.6366 228.46 25.85 229.088 25.1383C229.55 24.6698 229.907 24.459 230.171 24.5246C230.434 24.5902 230.545 24.8385 230.508 25.2788C230.445 26.0193 230.212 26.7346 229.828 27.3682C229.415 28.0977 228.933 28.7849 228.389 29.4201C227.894 30.006 227.352 30.5497 226.769 31.0457C226.406 31.3794 226.001 31.6644 225.566 31.8937C226.089 30.3741 226.73 28.8985 227.482 27.4806ZM195.254 50.9043C194.819 52.4034 194.333 53.9275 193.796 55.4766C193.26 57.0257 192.684 58.5467 192.07 60.0395C191.517 61.4009 190.869 62.7206 190.131 63.9887C189.549 65.0167 188.835 65.9619 188.007 66.7996C187.403 67.4541 186.576 67.8525 185.693 67.9146C185.32 67.8966 184.957 67.7875 184.635 67.5966C184.312 67.4057 184.04 67.1387 183.842 66.8183C183.248 65.9276 182.944 64.8711 182.972 63.7967C182.994 62.2839 183.327 60.7922 183.949 59.4165C184.841 57.4523 186.093 55.6768 187.637 54.1836C189.011 52.7633 190.473 51.4332 192.015 50.2016C193.459 49.0585 194.95 47.9248 196.49 46.8005C196.104 48.0216 195.692 49.3802 195.254 50.8762V50.9043ZM230.175 34.2267C231.142 34.4984 229.564 37.7308 229.486 37.8339C229.194 37.3795 228.361 33.6973 230.175 34.1986V34.2267Z" fill="white"/>
<path d="M178.381 50.8762C176.68 51.1642 175.019 51.6581 173.434 52.3472C172.143 49.1991 167.747 51.3447 167.182 51.607C168.125 50.8082 168.951 49.8775 169.635 48.843C170.353 47.7619 170.972 46.6173 171.486 45.4232C171.993 44.2569 172.398 43.0484 172.699 41.8112C172.961 40.7366 173.116 39.638 173.161 38.5319C173.213 37.68 173.109 36.8257 172.856 36.0115C172.776 35.7164 172.63 35.4438 172.429 35.2148C172.229 34.9858 171.979 34.8064 171.699 34.6904C171.108 34.469 170.455 34.4909 169.88 34.7514C169.23 35.046 168.632 35.4481 168.112 35.9413C167.496 36.5131 166.932 37.1403 166.428 37.8152C165.889 38.5268 165.391 39.2698 164.938 40.0404C164.484 40.7993 164.077 41.5426 163.716 42.2703C163.351 43.0012 163.045 43.6008 162.791 44.074C163.253 42.3781 163.6 40.9914 163.91 39.9139C164.221 38.8364 164.48 37.9042 164.693 37.1312C164.905 36.3582 165.114 35.6883 165.308 35.1355C165.502 34.5827 165.701 33.9877 165.905 33.3553C166.109 32.7229 166.326 31.9967 166.567 31.1628C166.807 30.329 167.094 29.289 167.418 27.9913C167.45 27.862 167.435 27.7257 167.377 27.6064C167.318 27.4872 167.22 27.3928 167.099 27.3401C166.802 27.1653 166.473 27.0552 166.132 27.0169C165.776 26.9693 165.414 26.9932 165.067 27.0871C164.921 27.1147 164.784 27.1789 164.668 27.2738C164.553 27.3687 164.463 27.4913 164.406 27.6306C163.789 29.5044 163.261 31.2706 162.823 32.929C162.385 34.5874 161.97 36.2708 161.578 37.9791C161.18 39.6609 160.764 41.4318 160.324 43.2776C160.248 43.3274 160.184 43.3948 160.139 43.4743C159.796 44.252 159.306 45.3107 158.663 46.6412C158.019 47.9717 157.353 49.2974 156.65 50.6045C156.031 51.7771 155.347 52.9127 154.599 54.0056C153.93 54.9644 153.398 55.4329 153.003 55.411C152.711 55.411 152.572 54.9894 152.591 54.2117C152.706 52.8416 152.953 51.486 153.327 50.1641C153.41 49.794 153.586 49.185 153.864 48.3464C154.141 47.5079 154.424 46.5662 154.72 45.5356C155.016 44.505 155.28 43.4228 155.511 42.3219C155.727 41.3605 155.846 40.3795 155.867 39.3939C155.897 38.6864 155.737 37.9839 155.405 37.3607C155.104 36.8501 154.572 36.6768 153.813 36.8407C153.156 36.986 152.461 37.5903 151.74 38.649C150.919 39.8856 150.206 41.1912 149.606 42.5514C148.909 44.0943 148.224 45.7683 147.551 47.5735C146.879 49.3786 146.271 51.0964 145.728 52.7267C145.191 54.3476 144.716 55.7702 144.303 56.9944C143.895 58.2172 143.595 59.0229 143.41 59.4165C143.224 59.81 143.169 59.6929 143.261 59.1682C143.446 58.3203 143.687 57.4861 143.983 56.6712C144.15 56.1746 144.358 55.5047 144.594 54.6708C144.83 53.8369 145.057 52.9609 145.321 52.038C145.585 51.1151 145.811 50.2063 146.061 49.3162L146.672 47.1331C146.931 46.0806 147.181 45.0375 147.422 44.0037C147.644 43.1235 147.776 42.2224 147.815 41.3147C147.881 40.7199 147.737 40.1208 147.408 39.6235C147.112 39.2581 146.575 39.1972 145.788 39.4361C145.001 39.675 144.182 40.4152 143.331 41.6613C142.361 43.0956 141.492 44.5968 140.73 46.154C139.846 47.9061 138.985 49.7987 138.134 51.8366C137.282 53.8744 136.491 55.8139 135.751 57.669C135.593 58.0204 135.528 58.1375 135.556 57.9454C135.584 57.7534 135.658 57.4254 135.788 56.882C135.917 56.3386 136.084 55.6499 136.311 54.8161C136.537 53.9822 136.773 53.1155 137.065 52.202C137.356 51.2884 140.263 41.0523 140.489 40.2559C140.481 40.0496 140.403 39.8526 140.267 39.6984C139.821 39.2882 139.311 38.9543 138.759 38.7099C138.615 38.6629 138.463 38.6465 138.312 38.6619C138.162 38.6772 138.016 38.7239 137.884 38.799C137.838 38.9536 135.802 46.0837 135.538 46.9972C135.274 47.9108 134.992 48.9695 134.691 50.1922C134.39 51.4149 134.103 52.6798 133.835 53.9869C133.59 55.1077 133.436 56.2466 133.372 57.3927C133.372 57.5004 133.372 57.5941 133.372 57.6972C133.252 57.9127 133.131 58.1328 133.006 58.3483C132.294 59.5976 131.63 60.6907 131.016 61.6276C130.51 62.4316 129.942 63.1944 129.318 63.9091C128.804 64.4853 128.392 64.757 128.11 64.7383C127.828 64.7196 127.772 64.3214 127.851 63.4828C127.966 62.4162 128.142 61.3572 128.379 60.3112C128.656 59.037 128.999 57.6175 129.406 56.0528C129.813 54.4881 130.227 52.9578 130.646 51.4618C131.063 49.9674 131.47 48.6041 131.859 47.3673C132.247 46.1306 132.553 45.1842 132.784 44.5565C132.761 44.4159 132.632 44.2567 132.386 44.088C132.134 43.9051 131.856 43.76 131.563 43.657C131.285 43.5503 130.993 43.4887 130.697 43.4743C130.429 43.4743 130.285 43.5352 130.276 43.6804C130.058 44.5471 129.883 45.217 129.744 45.6902C129.605 46.1634 129.485 46.5803 129.383 46.941C129.281 47.3017 129.175 47.6906 129.064 48.1028C128.952 48.5151 128.795 49.1054 128.601 49.8596C128.175 50.7591 127.701 51.696 127.18 52.6704C126.659 53.6449 126.119 54.5646 125.56 55.4297C125.058 56.2097 124.485 56.9406 123.848 57.6128C123.4 58.1334 122.8 58.4973 122.136 58.6528C121.673 58.7325 121.474 58.3952 121.511 57.6503C121.594 56.6815 121.782 55.7248 122.071 54.7973C122.446 53.5222 122.896 52.2707 123.418 51.0495C123.982 49.691 124.57 48.4495 125.172 47.3017C125.666 46.3486 126.237 45.4382 126.879 44.5799C127.411 43.8959 127.805 43.643 128.096 43.8069C128.096 43.8069 128.124 43.8397 128.143 43.8491C127.085 44.9613 126.377 46.367 126.111 47.8873C125.977 48.6041 125.903 50.6982 127.365 49.1803C127.979 48.5019 128.451 47.7052 128.753 46.838C129.004 46.138 129.111 45.3935 129.068 44.6502C129.045 44.3489 128.986 44.0516 128.892 43.7648C129.736 43.0616 130.727 42.5618 131.789 42.3031C133.691 41.741 135.848 41.7644 135.413 43.1558C135.2 43.8257 135.936 43.4743 135.908 43.1558C135.496 39.0285 128.74 43.2682 128.675 43.3244C128.615 43.2167 128.573 43.0902 128.504 42.9871C128.36 42.7749 128.166 42.6022 127.94 42.4844C127.714 42.3667 127.462 42.3076 127.208 42.3125C126.531 42.3632 125.885 42.6213 125.357 43.0527C124.472 43.758 123.71 44.6084 123.103 45.5684C122.624 46.2974 122.191 47.0563 121.807 47.8405C121.371 48.7234 120.98 49.6288 120.636 50.5529C120.293 51.4857 120 52.4365 119.757 53.4013C119.536 54.2645 119.401 55.1481 119.355 56.0388C119.34 56.4094 119.354 56.7806 119.396 57.149C118.933 57.9736 118.471 58.7231 118.059 59.3696C117.675 59.9627 117.245 60.5236 116.772 61.0467C116.388 61.4496 116.11 61.5621 115.939 61.3747C115.689 61.1639 115.638 60.6392 115.791 59.8006C115.944 58.962 116.171 57.9736 116.485 56.8211C116.8 55.6687 117.161 54.4178 117.568 53.0733C117.975 51.7288 118.309 50.4405 118.577 49.2225C118.823 48.1562 118.987 47.0724 119.068 45.9806C119.128 45.0437 118.984 44.3691 118.637 43.9943C118.408 43.7585 118.102 43.6148 117.776 43.5899C117.45 43.5649 117.126 43.6603 116.865 43.8585C116.051 44.3975 115.343 45.0854 114.778 45.887C113.976 46.9534 113.252 48.0776 112.612 49.2506C111.89 50.5436 111.217 51.81 110.594 53.0499C109.974 54.2914 109.437 55.3923 108.993 56.4042C108.549 57.4161 108.243 58.0719 108.067 58.4233C107.776 59.0464 107.466 59.7491 107.142 60.522C106.818 61.295 106.485 62.0961 106.133 62.9113C105.781 63.7264 105.439 64.5509 105.11 65.3801C104.782 66.2093 104.458 66.9776 104.143 67.6803C104.408 65.5816 104.782 63.2642 105.263 60.7282C105.744 58.1922 106.381 55.5078 107.174 52.6751C108.35 51.2884 109.627 49.7269 111.006 47.9904C112.385 46.2539 113.775 44.4144 115.176 42.4718C116.527 40.551 117.843 38.5647 119.123 36.5128C120.403 34.4609 121.534 32.4402 122.515 30.4508C123.45 28.5811 124.258 26.6497 124.936 24.6698C125.525 23.0088 125.894 21.2759 126.032 19.5166C126.097 18.1674 125.944 17.2773 125.57 16.8323C125.358 16.6133 125.101 16.4459 124.816 16.3428C124.531 16.2397 124.227 16.2036 123.927 16.2373C122.597 16.3134 121.337 16.8587 120.363 17.7786C119.011 18.9647 117.832 20.3384 116.86 21.859C115.617 23.7452 114.51 25.7194 113.547 27.7664C112.476 30.0026 111.453 32.3559 110.478 34.8263C109.504 37.2967 108.606 39.8093 107.785 42.364C106.968 44.9157 106.23 47.3658 105.573 49.7144C105.11 51.3353 104.703 52.8906 104.333 54.3991C103.033 55.6463 101.666 56.8193 100.237 57.9127C97.9882 59.5992 87.5619 63.9138 87.5758 56.8024C87.5685 56.7548 87.5447 56.7114 87.5086 56.6801C87.4726 56.6488 87.4266 56.6316 87.3791 56.6316C87.3315 56.6316 87.2856 56.6488 87.2495 56.6801C87.2134 56.7114 87.1896 56.7548 87.1824 56.8024C87.1824 60.3534 90.7273 61.4075 93.7445 60.9343C97.9836 60.2691 101.149 57.8752 104.162 55.1065C103.99 55.8186 103.824 56.5119 103.676 57.2053C103.218 59.2146 102.869 61.2477 102.63 63.2954C102.432 64.6576 102.432 66.0417 102.63 67.4039C102.833 68.4158 103.273 68.9218 103.953 68.9124C104.129 68.8843 104.319 68.7156 104.518 68.4111C104.726 68.0923 104.906 67.7552 105.055 67.4039C105.209 67.0323 105.339 66.6762 105.443 66.3358C105.499 66.1154 105.581 65.9029 105.689 65.7034C105.916 65.1225 106.258 64.2979 106.707 63.2064C107.156 62.1149 107.66 60.9296 108.22 59.6226C108.78 58.3155 109.377 56.9617 110.025 55.5375C110.673 54.1133 111.339 52.7641 112.024 51.4946C112.649 50.333 113.337 49.2069 114.083 48.1216C114.617 47.3057 115.269 46.576 116.018 45.9572C116.402 45.6761 116.596 45.7183 116.601 46.0743C116.565 46.6483 116.449 47.2144 116.259 47.7562C116.023 48.5151 115.726 49.4333 115.361 50.5014C114.995 51.5695 114.648 52.6798 114.315 53.8135C113.982 54.9472 113.699 56.0762 113.468 57.1772C113.25 58.1224 113.155 59.0927 113.186 60.0629C113.188 60.7587 113.421 61.4335 113.847 61.979C114.245 62.4475 114.916 62.5833 115.861 62.4475C116.592 62.3257 117.369 61.6885 118.174 60.5408C118.679 59.8334 119.174 59.0604 119.66 58.2359C119.751 58.497 119.894 58.7361 120.081 58.9378C120.269 59.1395 120.496 59.2993 120.747 59.4071C121.044 59.5326 121.366 59.5869 121.687 59.5658C122.008 59.5447 122.32 59.4487 122.599 59.2853C123.307 58.88 123.935 58.3446 124.45 57.7065C125.113 56.9016 125.719 56.05 126.264 55.158C126.881 54.168 127.461 53.1592 128.004 52.1317C127.576 53.1191 127.22 54.1369 126.939 55.1768C126.602 56.3901 126.315 57.6081 126.088 58.8355C125.866 59.9936 125.725 61.1662 125.667 62.3444C125.588 63.2313 125.679 64.1253 125.935 64.9772C126.001 65.253 126.156 65.4989 126.374 65.6768C126.592 65.8547 126.863 65.9546 127.143 65.961C127.723 65.961 128.524 65.4847 129.545 64.5322C130.156 63.9135 130.712 63.2409 131.206 62.5224C131.822 61.6604 132.437 60.7048 133.057 59.646L133.52 58.8309C133.571 59.0586 133.664 59.2747 133.793 59.468C134.089 59.8662 134.64 59.7678 135.436 59.1635C135.945 58.7543 136.473 57.9173 137.019 56.6525C137.565 55.3923 138.166 53.9259 138.828 52.2676C139.49 50.6092 140.216 48.8852 141.026 47.1144C141.779 45.4233 142.695 43.8118 143.761 42.3031C144.844 40.8228 145.407 40.5386 145.45 41.4505C145.494 42.3625 145.059 44.3019 144.145 47.2689C143.818 48.3308 143.467 49.5254 143.09 50.8528C142.715 52.1785 142.373 53.509 142.072 54.8395C141.771 56.1699 141.517 57.4208 141.313 58.5873C141.132 59.5498 141.031 60.5261 141.012 61.5058C141.012 62.2835 141.133 62.7848 141.369 63.0143C141.605 63.2439 142.012 63.0612 142.595 62.4568C143.129 61.7598 143.545 60.9777 143.826 60.1426C144.313 58.9433 144.846 57.5285 145.423 55.8982C146 54.2679 146.617 52.5237 147.274 50.6654C147.937 48.7915 148.607 47.0207 149.282 45.3529C149.958 43.6851 150.623 42.211 151.277 40.9305C151.72 39.9564 152.349 39.0807 153.128 38.3539C153.503 38.0353 153.716 38.0635 153.757 38.4382C153.774 39.0258 153.699 39.6125 153.535 40.1763C153.341 40.9664 153.075 41.9315 152.739 43.0714C152.406 44.2051 152.082 45.4138 151.763 46.6131C151.443 47.8124 151.166 49.0491 150.93 50.2437C150.705 51.3109 150.595 52.3993 150.601 53.4903C150.584 54.3115 150.753 55.1258 151.096 55.8701C151.254 56.1722 151.495 56.4216 151.79 56.5879C152.085 56.7542 152.421 56.8303 152.758 56.8071C153.115 56.8071 153.555 56.5353 154.077 55.9919C154.671 55.3336 155.202 54.6199 155.664 53.8604C156.201 52.9937 156.756 52.0427 157.321 51.012C157.885 49.9814 158.403 48.9742 158.871 47.9904C159.102 47.5219 159.334 47.0534 159.514 46.6178C159.26 47.5547 158.996 48.5666 158.704 49.6066C157.023 53.1358 155.645 56.387 154.572 59.3602C153.635 61.895 152.827 64.4765 152.151 67.0947C151.688 68.8059 151.389 70.5583 151.258 72.3276C151.203 73.6393 151.342 74.4076 151.665 74.6418C152.11 74.9541 152.599 74.8183 153.132 74.2343C153.801 73.4183 154.358 72.5155 154.789 71.5499C155.445 70.1625 156.019 68.7374 156.511 67.2821C157.085 65.6393 157.648 63.9216 158.2 62.1289C158.752 60.3362 159.266 58.5451 159.741 56.7555C160.219 54.966 160.643 53.3357 161.014 51.8647C161.384 50.3937 161.692 49.1709 161.939 48.1965C162.175 47.2221 162.309 46.6225 162.346 46.3976C163.105 44.9047 163.843 43.4993 164.558 42.1813C165.198 40.9776 165.906 39.8123 166.678 38.6912C167.259 37.8241 167.931 37.0231 168.682 36.302C169.165 35.7789 169.827 35.4623 170.533 35.4166C170.931 35.4166 171.116 35.7914 171.088 36.5128C171.026 37.4661 170.856 38.4091 170.584 39.3236C170.275 40.4761 169.871 41.7254 169.371 43.0714C168.871 44.4175 168.367 45.7199 167.858 46.9785C167.343 48.2278 166.848 49.3115 166.372 50.2297C166.081 50.8622 165.718 51.4581 165.29 52.0052C164.781 52.1246 164.286 52.2973 163.813 52.5205C163.388 52.7231 162.977 52.9547 162.582 53.2139C162.273 53.4141 161.996 53.6623 161.763 53.9494C161.677 54.0403 161.612 54.1488 161.571 54.2677C161.53 54.3865 161.515 54.5128 161.527 54.638C161.527 54.7786 161.708 54.8301 161.99 54.7973C162.363 54.7469 162.726 54.6411 163.068 54.4834C163.561 54.2592 164.039 54.0025 164.498 53.7151C165.028 53.4097 165.528 53.0553 165.993 52.6564C169.927 50.136 172.338 51.0589 173.097 52.5205C172.095 52.9212 171.2 53.5533 170.482 54.3663C169.367 55.8561 169.556 58.6997 171.87 58.3624C174.101 58.0391 174.184 55.2939 173.93 53.5324C173.888 53.2492 173.816 52.9712 173.717 52.7032L174.415 52.3987C175.72 51.8459 177.137 51.1994 178.511 51.3447C178.844 51.3728 178.696 50.834 178.381 50.8762ZM128.453 44.2239C128.501 44.3346 128.535 44.4511 128.554 44.5705C128.592 44.9929 128.561 45.4186 128.462 45.8307C128.342 46.3485 128.161 46.8501 127.925 47.3252C127.693 47.8406 127.38 48.3151 127 48.7306C126.088 49.541 126.842 44.9781 128.453 44.2239ZM108.882 47.0816C109.474 45.1077 110.195 42.8778 111.043 40.3918C111.891 37.9057 112.832 35.3198 113.866 32.6339C114.896 29.9542 115.976 27.4838 117.105 25.2226C118.066 23.2248 119.215 21.325 120.535 19.5494C121.705 18.0175 122.825 17.1602 123.908 16.9822C124.501 16.8791 124.917 17.1649 125.153 17.8254C125.389 18.486 125.38 19.6009 125.13 21.1563C124.834 22.8039 124.38 24.4184 123.774 25.9768C123.1 27.7544 122.327 29.4921 121.46 31.1816C120.535 32.9555 119.526 34.7389 118.434 36.5315C117.341 38.3242 116.177 40.0888 114.94 41.8253C113.706 43.5586 112.472 45.2248 111.237 46.8239C110.003 48.423 108.794 49.9143 107.609 51.2978C107.868 50.4639 108.293 49.0585 108.882 47.0816ZM155.562 62.1477C154.868 64.9148 154.285 67.1666 153.813 68.903C153.35 70.6411 152.97 71.9153 152.688 72.7164C152.406 73.5175 152.193 73.9016 152.04 73.8548C151.888 73.8079 151.763 73.2973 151.851 72.1823C152.011 70.6294 152.289 69.0914 152.684 67.5819C153.146 65.6237 153.836 63.3329 154.729 60.6907C155.622 58.0485 156.77 55.1908 158.167 52.1083C157.128 56.0216 156.259 59.368 155.562 62.1477ZM173.175 56.8773C171.856 59.2197 169.473 57.8845 170.653 55.0878C171.074 54.0946 172.227 53.42 173.3 52.9234C173.447 53.4791 173.534 54.0493 173.559 54.624C173.654 55.391 173.521 56.1692 173.175 56.8586V56.8773Z" fill="white"/>
<path d="M104.8 32.6339C104.43 31.6657 103.617 30.9114 102.361 30.3711C100.848 29.8009 99.2222 29.6018 97.618 29.7902C95.9201 29.8998 94.2464 30.2547 92.6478 30.8443C91.0045 31.4478 89.4273 32.2218 87.9413 33.1539C86.4099 34.1124 84.9678 35.21 83.6329 36.4332C82.2953 37.6612 81.0573 38.9959 79.9307 40.4246C77.8887 40.1607 75.8186 40.2191 73.7943 40.5979C71.3694 40.982 67.732 41.7925 65.1682 43.0527C62.51 44.4676 60.254 46.5482 58.6153 49.096C57.5231 50.9699 57.8054 53.5933 60.1054 54.7177C63.0348 56.1465 66.6306 52.8438 67.6163 51.0214C68.602 49.1991 68.7177 45.0999 65.4042 45.6808C64.8536 45.7439 64.3476 46.0174 63.9894 46.4453C63.6312 46.8733 63.4479 47.4235 63.4768 47.9837C63.5058 48.5438 63.7448 49.0717 64.1451 49.4595C64.5455 49.8473 65.0769 50.0658 65.631 50.0704C65.8624 50.0704 65.8207 49.8502 65.631 49.78C61.6835 48.412 66.3945 43.6898 67.7968 47.639C68.0235 48.2762 67.9356 51.2931 64.7378 53.0827C62.8867 54.1087 61.0356 54.5303 59.564 52.6892C58.8791 51.8459 57.9304 48.0935 65.8762 43.6008C68.1901 42.2891 70.9066 41.8815 73.2158 41.5067C75.1951 41.1997 77.211 41.2282 79.181 41.5911C77.8254 43.4502 76.614 45.4127 75.5575 47.461C74.3462 49.7805 73.2722 52.1708 72.3412 54.6193C71.3857 57.1314 70.5669 59.6947 69.8885 62.2976C69.2352 64.7725 68.8122 67.3039 68.6251 69.8587C68.4432 72.1021 68.5724 74.3602 69.0092 76.5673C69.3633 78.4712 70.2042 80.248 71.448 81.7205C72.7533 83.1669 74.4627 84.1768 76.3488 84.6156C78.4159 85.159 81.0151 85.1263 84.1466 84.5172C85.511 84.2413 86.84 83.8091 88.1079 83.2289C89.5173 82.5877 90.8757 81.8375 92.1711 80.985C93.6101 80.0434 94.9417 78.9436 96.1417 77.7056C97.2506 76.5945 98.2022 75.3333 98.9693 73.9579C99.6328 72.7824 100.081 71.4953 100.293 70.1585C100.488 68.9995 100.296 67.8074 99.7467 66.7715C99.0963 65.8815 98.2038 65.2026 97.1783 64.8179C96.1987 64.4577 95.1531 64.3186 94.1148 64.4104C93.0812 64.5005 92.0694 64.7633 91.1206 65.188C90.2185 65.5815 89.401 66.1496 88.7142 66.8605C88.0597 67.4894 87.5386 68.2465 87.1824 69.0857C86.8748 69.7704 86.7503 70.5248 86.8214 71.2735C86.8997 71.9186 87.2193 72.5088 87.7146 72.9225C88.2283 73.3629 89.0104 73.5737 90.0747 73.555C90.1935 73.5744 90.3153 73.5513 90.4192 73.4898C90.523 73.4283 90.6025 73.332 90.644 73.2177C90.7411 72.9788 90.482 72.8242 89.8619 72.7492C89.5555 72.7462 89.2532 72.6783 88.9742 72.55C88.6953 72.4218 88.4459 72.2359 88.2422 72.0043C87.9085 71.5679 87.7439 71.0231 87.7794 70.4724C87.8282 69.8024 88.026 69.1522 88.3578 68.5704C88.7373 67.8764 89.2484 67.265 89.8619 66.7715C90.5924 66.1549 91.4443 65.7029 92.3608 65.4457C93.2195 65.2013 94.1141 65.1124 95.0033 65.1834C95.8149 65.2431 96.6042 65.4796 97.3172 65.8767C97.9477 66.2138 98.4624 66.7365 98.7934 67.3758C99.2779 68.3442 99.4572 69.4398 99.3071 70.5146C99.144 71.7345 98.7328 72.907 98.0993 73.9579C97.3744 75.1899 96.511 76.3328 95.5262 77.3637C94.4524 78.4978 93.2448 79.4938 91.9305 80.3291C90.5924 81.2163 89.1765 81.9769 87.7007 82.6012C86.4466 83.1305 85.1447 83.5353 83.8134 83.8098C80.8578 84.3814 78.5177 84.1674 76.7931 83.168C75.0547 82.1492 73.7543 80.5104 73.1464 78.5723C72.4399 76.5142 72.1993 74.0297 72.4245 71.1189C72.6939 67.9686 73.2532 64.8507 74.0951 61.8057C75.0368 58.3562 76.2088 54.9754 77.603 51.6866C79.0289 48.2912 80.6641 44.9897 82.4991 41.8019C84.0047 42.0642 85.5041 42.3016 86.9973 42.5139C88.4917 42.725 90.0013 42.8049 91.5093 42.7529C93.0551 42.6946 94.5877 42.4428 96.0723 42.0033C97.6871 41.5108 99.2136 40.7595 100.594 39.7781C102.476 38.4851 103.737 37.2077 104.379 35.946C105.021 34.6842 105.161 33.5802 104.8 32.6339ZM103.643 35.8757C103.06 36.9047 102.272 37.7997 101.329 38.5038C100.011 39.5846 98.5106 40.4162 96.9007 40.9586C95.4033 41.457 93.847 41.7516 92.2729 41.8347C90.728 41.914 89.1792 41.8529 87.6452 41.652C86.1088 41.4458 84.651 41.1835 83.2766 40.9118C84.3326 39.2985 85.5928 37.8322 87.025 36.5503C88.479 35.22 90.0673 34.0486 91.7639 33.0555C93.2859 32.1604 94.9037 31.4437 96.586 30.9192C97.8837 30.4689 99.2695 30.342 100.626 30.5491C101.518 30.6966 102.359 31.0706 103.069 31.636C103.645 32.105 104.031 32.7719 104.152 33.5099C104.231 34.3288 104.048 35.1517 103.629 35.8569L103.643 35.8757Z" fill="white"/>
<path fill-rule="evenodd" clip-rule="evenodd" d="M23.5968 60.9565C28.3372 57.7052 42 47.1613 42 33.6364C42 22.7915 33.0457 14 22 14C10.9543 14 2 22.7915 2 33.6364C2 47.1613 15.6628 57.7052 20.4032 60.9565C20.9141 61.3069 21.1695 61.4821 21.5237 61.5689C21.8047 61.6378 22.1953 61.6378 22.4763 61.5689C22.8305 61.4821 23.0859 61.3069 23.5968 60.9565ZM22 38C25.3137 38 28 35.3137 28 32C28 28.6863 25.3137 26 22 26C18.6863 26 16 28.6863 16 32C16 35.3137 18.6863 38 22 38Z" fill="white"/>
</svg>
