<svg width="35" height="25" viewBox="0 0 35 25" fill="none" xmlns="http://www.w3.org/2000/svg">
<path d="M34.2682 3.89004C34.0703 3.14543 33.6803 2.46586 33.1373 1.91933C32.5942 1.3728 31.9172 0.978478 31.1739 0.775835C28.4375 0.0400392 17.5 0.0400391 17.5 0.0400391C17.5 0.0400391 6.5625 0.0400392 3.82614 0.775835C3.08281 0.978478 2.40575 1.3728 1.86271 1.91933C1.31967 2.46586 0.929696 3.14543 0.731818 3.89004C4.74128e-08 6.63833 0 12.3696 0 12.3696C0 12.3696 4.74128e-08 18.1008 0.731818 20.8491C0.929696 21.5937 1.31967 22.2733 1.86271 22.8198C2.40575 23.3664 3.08281 23.7607 3.82614 23.9633C6.5625 24.6991 17.5 24.6991 17.5 24.6991C17.5 24.6991 28.4375 24.6991 31.1739 23.9633C31.9172 23.7607 32.5942 23.3664 33.1373 22.8198C33.6803 22.2733 34.0703 21.5937 34.2682 20.8491C35 18.1008 35 12.3696 35 12.3696C35 12.3696 35 6.63833 34.2682 3.89004ZM13.9205 17.5738V7.16532L23.0682 12.3696L13.9205 17.5738Z" fill="#A68874"/>
</svg>
