<?xml version="1.0" encoding="utf-8"?><svg width="20" height="27" fill="none" xmlns="http://www.w3.org/2000/svg" viewBox="0 0 20 27"><path d="M.5 10A1.5 1.5 0 012 8.5h16a1.5 1.5 0 011.5 1.5v15a1.5 1.5 0 01-1.5 1.5H2A1.5 1.5 0 01.5 25V10z" stroke="#735745"/><path d="M15 6A5 5 0 005 6" stroke="#735745" stroke-linecap="round"/><path d="M9.82 13.936c-.793 0-1.585.276-2.377.828l-.288-.768c.816-.584 1.744-.876 2.784-.876.856 0 1.52.22 1.992.66.472.432.708 1.04.708 1.824s-.284 1.576-.852 2.376c-.568.8-1.632 1.864-3.192 3.192v.024h4.08V22h-5.4v-.804c1.704-1.408 2.856-2.504 3.456-3.288.608-.792.912-1.536.912-2.232 0-.568-.156-1-.468-1.296-.304-.296-.756-.444-1.356-.444z" fill="#735745"/></svg>