<?xml version="1.0" encoding="utf-8"?><svg width="30" height="41" fill="none" xmlns="http://www.w3.org/2000/svg" viewBox="0 0 30 41"><rect x=".75" y="13.75" width="28.5" height="26.5" rx="1.25" stroke="#735745" stroke-width="1.5"/><path d="M23 9A8 8 0 007 9" stroke="#735745" stroke-width="1.5" stroke-linecap="round"/><path d="M14.729 20.904c-1.188 0-2.376.414-3.564 1.242l-.432-1.152c1.224-.876 2.616-1.314 4.176-1.314 1.284 0 2.28.33 2.988.99.708.648 1.062 1.56 1.062 2.736 0 1.176-.426 2.364-1.278 3.564-.852 1.2-2.448 2.796-4.788 4.788v.036h6.12V33h-8.1v-1.206c2.556-2.112 4.284-3.756 5.184-4.932.912-1.188 1.368-2.304 1.368-3.348 0-.852-.234-1.5-.702-1.944-.456-.444-1.134-.666-2.034-.666z" fill="#735745"/></svg>