<?xml version="1.0" encoding="utf-8"?><svg width="30" height="31" fill="none" xmlns="http://www.w3.org/2000/svg" viewBox="0 0 30 31"><path d="M15 2.705c4.005 0 4.48.016 6.061.088 1.463.066 2.257.31 2.786.516.652.24 1.242.624 1.727 1.122a4.645 4.645 0 011.122 1.727c.205.529.45 1.323.516 2.785.072 1.582.088 2.056.088 6.062 0 4.005-.016 4.48-.088 6.061-.067 1.463-.31 2.257-.516 2.786a4.973 4.973 0 01-2.847 2.846c-.529.206-1.323.45-2.785.517-1.582.072-2.056.087-6.062.087-4.005 0-4.48-.015-6.061-.087-1.462-.067-2.257-.311-2.785-.517a4.645 4.645 0 01-1.727-1.122 4.644 4.644 0 01-1.123-1.727c-.205-.529-.45-1.323-.516-2.785-.072-1.582-.087-2.056-.087-6.062 0-4.005.015-4.479.087-6.061.067-1.462.311-2.257.516-2.785A4.644 4.644 0 014.43 4.429a4.644 4.644 0 011.727-1.123c.528-.205 1.323-.45 2.785-.516 1.582-.072 2.056-.087 6.061-.087L15 2.705zM15.002 0c-4.074 0-4.584.017-6.184.09-1.6.074-2.69.33-3.643.7a7.364 7.364 0 00-2.658 1.73 7.364 7.364 0 00-1.73 2.658c-.37.953-.624 2.045-.696 3.64C.018 10.416 0 10.929 0 15.003s.017 4.585.09 6.185c.074 1.6.327 2.687.697 3.64.377 1 .968 1.907 1.73 2.657a7.353 7.353 0 002.658 1.73c.953.372 2.045.625 3.641.698 1.597.073 2.111.09 6.185.09s4.585-.017 6.185-.09c1.6-.073 2.686-.326 3.639-.697a7.665 7.665 0 004.387-4.388c.371-.953.625-2.045.698-3.641.072-1.596.09-2.11.09-6.185 0-4.074-.017-4.585-.09-6.185-.074-1.6-.327-2.685-.698-3.638a7.353 7.353 0 00-1.73-2.657A7.364 7.364 0 0024.826.79C23.872.42 22.78.166 21.183.093 19.587.02 19.073.003 15 .003L15.002 0z" fill="#fff"/><path d="M15 7.3a7.702 7.702 0 100 15.404A7.702 7.702 0 0015 7.3zm0 12.704a5.001 5.001 0 110-10.003 5.001 5.001 0 010 10.003zM23.007 8.795a1.8 1.8 0 100-3.6 1.8 1.8 0 000 3.6z" fill="#fff"/></svg>