<?xml version="1.0" encoding="utf-8"?><svg width="201" height="95" fill="none" xmlns="http://www.w3.org/2000/svg" viewBox="0 0 201 95"><path d="M11.434.482a.32.32 0 01.318-.314h6.637a.313.313 0 01.314.314v.91a.314.314 0 01-.314.315h-5.257V5.58h4.442a.329.329 0 01.319.315v.916a.324.324 0 01-.32.314h-4.441v4.372a.325.325 0 01-.313.32h-1.067a.319.319 0 01-.318-.32V.482zM22.58 11.372L27.675.183A.392.392 0 0127.957 0h.168a.391.391 0 01.282.183l5.058 11.19a.293.293 0 01-.282.434h-1.045a.386.386 0 01-.381-.251L30.71 9.278h-5.408c-.335.764-.68 1.513-1.014 2.278a.418.418 0 01-.382.25h-1.045a.297.297 0 01-.282-.434zM30.1 7.85l-2.043-4.556h-.084L25.951 7.85H30.1zM37.693 10.126c.146-.214.282-.466.428-.68a.381.381 0 01.565-.137c.1.084 1.38 1.152 2.654 1.152 1.15 0 1.877-.701 1.877-1.57 0-.995-.863-1.629-2.504-2.31-1.64-.68-3.02-1.575-3.02-3.502C37.693 1.78 38.686 0 41.35 0a5.579 5.579 0 013.073.984.392.392 0 01.062.566c-.136.199-.282.43-.418.628a.394.394 0 01-.421.231.391.391 0 01-.159-.063 5.052 5.052 0 00-2.236-.833c-1.396 0-1.876.88-1.876 1.498 0 .947.726 1.529 2.09 2.094 1.923.78 3.569 1.696 3.569 3.723 0 1.733-1.568 3.141-3.7 3.141a5.392 5.392 0 01-3.569-1.309c-.125-.136-.24-.251-.073-.534zM50.663.482a.33.33 0 01.314-.314h1.097a.313.313 0 01.314.314V5.12h6.077V.48a.314.314 0 01.314-.313h1.092a.329.329 0 01.319.314v10.995a.33.33 0 01-.32.32H58.78a.31.31 0 01-.224-.094.313.313 0 01-.09-.226v-4.79h-6.077v4.8a.314.314 0 01-.314.32h-1.097a.329.329 0 01-.314-.32V.482zM66.716.482a.33.33 0 01.32-.314h1.091a.329.329 0 01.32.314v10.995a.33.33 0 01-.32.32h-1.092a.329.329 0 01-.319-.32V.482zM80.09 0a5.965 5.965 0 013.32 1 5.983 5.983 0 012.556 6.137 5.988 5.988 0 01-1.627 3.068 5.969 5.969 0 01-6.505 1.315 5.976 5.976 0 01-2.687-2.197A5.993 5.993 0 0174.132 6a5.985 5.985 0 011.735-4.24A5.961 5.961 0 0180.09 0zm0 10.31a4.31 4.31 0 004.003-2.66 4.333 4.333 0 00-.929-4.722A4.314 4.314 0 0075.794 6a4.329 4.329 0 001.267 3.03 4.313 4.313 0 003.028 1.264v.015zM91.748.298A.32.32 0 0192.067 0h.412l7.201 8.346V.492a.32.32 0 01.32-.314h1.044a.322.322 0 01.314.314v11.179a.309.309 0 01-.314.298h-.433l-7.17-8.576v8.095a.32.32 0 01-.314.319h-1.045a.33.33 0 01-.319-.32L91.748.299zM200.704 42.285c-1.782 1.047-3.465 1.696-5.341 1.236a3.6 3.6 0 01-1.479-.875c.408-.822 2.927-4.801.141-4.937-1.458-.074-2.011 3.204-.689 4.817l.052.057-.235.299a10.002 10.002 0 01-2.378 2.152 1.82 1.82 0 01-1.374.345 1.375 1.375 0 01-.857-.795 4.636 4.636 0 01-.418-1.571 13.696 13.696 0 01-.053-1.985c.023-.66.087-1.317.194-1.968.079-.531.194-1.056.345-1.571l.277-.895a8.8 8.8 0 001.844-1.152 16.172 16.172 0 002.164-2.074 13.714 13.714 0 001.839-2.618c.489-.869.776-1.837.841-2.832a1.355 1.355 0 00-.522-1.393 2.013 2.013 0 00-1.568-.068 7.254 7.254 0 00-3.329 2.456 17.74 17.74 0 00-2.487 4.214 25.098 25.098 0 00-1.515 4.964c-.136.68-.23 1.32-.304 1.937a100.205 100.205 0 01-2.398 4.482c-1.352 2.363-2.35 3.557-2.995 3.582-.36 0-.522-.404-.522-1.273.12-1.573.402-3.129.841-4.644a18.61 18.61 0 01.622-1.942c.317-.88.631-1.86.941-2.938.31-1.078.592-2.194.846-3.346.239-1.002.365-2.027.377-3.057a3.677 3.677 0 00-.523-2.095c-.35-.523-.956-.69-1.824-.523-1.024.174-2.001.993-2.931 2.455a36.948 36.948 0 00-2.76 5.383 114.69 114.69 0 00-2.675 6.943 248.269 248.269 0 01-2.613 7.115c-.267.602-.35.587-.251-.052.099-.639.282-1.57.554-2.875.272-1.303.606-2.696.998-4.277.392-1.582 2.906-11.038 3.256-12.347a.82.82 0 00-.241-.895 2.267 2.267 0 00-.909-.523c-.34-.101-.699-.114-1.045-.037a.772.772 0 00-.643.523c-.057.168-2.346 8.75-2.576 9.697-.136.56-.277 1.184-.423 1.854-.272.462-.569.91-.889 1.34a16.588 16.588 0 01-2.346 2.534 21.303 21.303 0 01-2.613 1.948c-.92.576-1.836 1.16-2.749 1.754.392-1.314.727-2.456 1.014-3.43.288-.973.554-1.916.81-2.827.256-.91.523-1.838.81-2.796.288-.958.674-2.256 1.045-3.56 1.568-5.828 1.239-5.602 1.019-5.828a1.447 1.447 0 00-.726-.429c-.298-.068-1.678 2.697-2.691 5.325l-2.587 7.723a56.572 56.572 0 01-1.568 2.916 38.543 38.543 0 01-1.677 2.697 15.03 15.03 0 01-1.751 2.094c-.47.525-1.091.89-1.777 1.047-.522.084-.747-.293-.7-1.126.092-1.08.302-2.148.627-3.183a37.27 37.27 0 011.521-4.215 47.77 47.77 0 011.986-4.189 20.929 20.929 0 011.891-3.084c.601-.764 1.046-1.047 1.375-.863a1.047 1.047 0 01.47.864c.044.471.011.947-.099 1.408a7.925 7.925 0 01-.606 1.67 7.34 7.34 0 01-1.046 1.571c-.235.283-.287.471-.146.566.152.178.345.146.591-.095a8.343 8.343 0 001.541-2.618c.302-.78.434-1.615.387-2.45a3.628 3.628 0 00-.622-1.854 1.714 1.714 0 00-1.463-.754 3.764 3.764 0 00-2.09.828c-.996.79-1.854 1.74-2.54 2.811a24.298 24.298 0 00-1.463 2.54 30.33 30.33 0 00-2.315 6.22 14.424 14.424 0 00-.455 2.943c-.017.42-.001.843.047 1.261-.026.058-.052.11-.084.168a108.568 108.568 0 01-2.356 4.288 74.861 74.861 0 01-2.253 3.665 21.11 21.11 0 01-1.912 2.555c-.585.64-1.045.948-1.369.922-.324-.026-.377-.46-.293-1.403a29.94 29.94 0 01.601-3.545c.314-1.424.695-3.005 1.155-4.754.46-1.749.93-3.461 1.4-5.131.471-1.67.931-3.2 1.369-4.582.439-1.382.784-2.434 1.046-3.141-.026-.157-.178-.335-.455-.524a3.728 3.728 0 00-.93-.482 3.135 3.135 0 00-.972-.199c-.308 0-.465.069-.481.23a66.924 66.924 0 01-.601 2.247c-.157.534-.293.995-.408 1.393a80.93 80.93 0 00-.36 1.303c-.125.467-.303 1.116-.523 1.959a65.08 65.08 0 01-1.599 3.141 40.79 40.79 0 01-1.829 3.09c-.57.869-1.219 1.684-1.938 2.434a3.66 3.66 0 01-1.934 1.168c-.523.084-.747-.288-.7-1.126.089-1.081.299-2.15.627-3.183a37.273 37.273 0 011.521-4.19 48.062 48.062 0 011.985-4.188 20.932 20.932 0 011.929-3.037c.601-.77 1.045-1.047 1.374-.869a1.081 1.081 0 01.476.864c.044.47.01.944-.1 1.403a7.86 7.86 0 01-.606 1.676 7.286 7.286 0 01-1.045 1.57c-.235.283-.288.472-.146.571.141.1.344.142.59-.1a7.655 7.655 0 001.568-2.617 6.246 6.246 0 00.355-2.45 3.601 3.601 0 00-.643-1.854 1.707 1.707 0 00-1.463-.76 3.77 3.77 0 00-2.09.828c-.996.79-1.854 1.74-2.54 2.812a23.404 23.404 0 00-1.463 2.54 29.323 29.323 0 00-1.322 3.03 28.41 28.41 0 00-.993 3.19 14.474 14.474 0 00-.455 2.947 6.4 6.4 0 00.293 2.34 2.258 2.258 0 001.265 1.393 2.344 2.344 0 002.09-.141 7.32 7.32 0 002.09-1.765 23.82 23.82 0 002.054-2.848c.697-1.1 1.35-2.225 1.96-3.377a23.68 23.68 0 00-1.197 3.403 45.782 45.782 0 00-.967 4.09 28.646 28.646 0 00-.475 3.916c-.087.991.016 1.99.303 2.943a1.439 1.439 0 001.369 1.104c.648 0 1.552-.534 2.712-1.602a16.58 16.58 0 001.876-2.246 38.737 38.737 0 002.09-3.215 93.51 93.51 0 002.091-3.764c.188-.357.365-.702.553-1.048a2.215 2.215 0 001.26 1.393 2.31 2.31 0 001.933-.078 6.827 6.827 0 001.939-1.498 17.406 17.406 0 001.923-2.497 48.55 48.55 0 001.834-3.058l-1.599 5.76a185.76 185.76 0 00-5.45 3.958 42.933 42.933 0 00-5.424 4.858c-2.275 2.395-3.812 4.615-4.609 6.66a11.838 11.838 0 00-.967 5.357 5.639 5.639 0 001.536 3.586 4.466 4.466 0 002.9 1.393 5.966 5.966 0 004.045-1.277 14.387 14.387 0 003.313-3.666 29.219 29.219 0 002.613-5.183c.773-1.94 1.47-3.9 2.09-5.88a189.15 189.15 0 001.699-5.723c.508-1.836.958-3.407 1.348-4.712l.104-.44c1.248-.775 2.401-1.52 3.46-2.236a25.327 25.327 0 002.9-2.298 19.054 19.054 0 002.273-2.524 53.715 53.715 0 00-.595 3.56 27.7 27.7 0 00-.267 3.524c-.064.73.1 1.462.47 2.095.307.415.83.298 1.568-.351.206-.169.382-.37.523-.597a7.81 7.81 0 00.554-1.047c.425-1.114.895-2.38 1.411-3.801.522-1.414 1.045-2.864 1.62-4.351a198.548 198.548 0 011.735-4.367 55.71 55.71 0 011.74-3.822 18.832 18.832 0 011.667-2.791c.522-.733 1.045-1.142 1.526-1.22.48-.079.616.346.423 1.262s-.523 2.094-.962 3.544c-.439 1.45-.94 3.022-1.468 4.713a29.722 29.722 0 00-1.103 4.749 7.922 7.922 0 00.215 3.665c.348.988 1.149 1.48 2.403 1.476a2.22 2.22 0 001.479-.79 15.097 15.097 0 001.693-2.063 29.247 29.247 0 001.746-2.859c.266-.492.522-.99.763-1.482v.676c.002 1.14.315 2.26.904 3.236a2.235 2.235 0 002.472.931c1.52-.298 4.593-4.01 4.593-4.01l.272.214c1.923 1.45 4.948.524 6.939-.193.293-.021.089-.691-.151-.55zm-9.323-11.571a13.086 13.086 0 011.814-2.618c.522-.524.925-.76 1.222-.686.298.073.424.35.382.843a5.368 5.368 0 01-.768 2.335 14.533 14.533 0 01-1.626 2.293 15.576 15.576 0 01-1.829 1.817c-.41.373-.867.692-1.358.948a34.345 34.345 0 012.163-4.932zm-36.392 26.179a104.071 104.071 0 01-1.646 5.11 95.837 95.837 0 01-1.949 5.1 34.564 34.564 0 01-2.19 4.414 14.943 14.943 0 01-2.398 3.141 3.947 3.947 0 01-2.613 1.246 2.609 2.609 0 01-2.09-1.225 5.768 5.768 0 01-.983-3.377c.025-1.69.401-3.358 1.103-4.895a19.16 19.16 0 014.165-5.849 52.112 52.112 0 014.943-4.45 163.17 163.17 0 015.054-3.802 224.633 224.633 0 00-1.396 4.556v.031zm39.434-18.64c1.092.304-.69 3.917-.779 4.032-.329-.508-1.27-4.623.779-4.063v.031z" fill="#fff"/><path d="M135.936 56.862a24.287 24.287 0 00-5.586 1.644c-1.458-3.519-6.422-1.12-7.06-.828a14.641 14.641 0 002.77-3.089 24.161 24.161 0 002.09-3.822 24.658 24.658 0 001.369-4.037c.297-1.2.472-2.429.523-3.665a7.81 7.81 0 00-.345-2.817 2.228 2.228 0 00-1.307-1.476 2.71 2.71 0 00-2.053.068 7.26 7.26 0 00-1.997 1.33 15.72 15.72 0 00-1.902 2.094 25.657 25.657 0 00-1.682 2.487 36.541 36.541 0 00-1.38 2.492 82.187 82.187 0 01-1.045 2.016c.522-1.895.914-3.445 1.265-4.65.35-1.204.642-2.245.883-3.11.24-.863.475-1.612.695-2.23.219-.618.444-1.283.674-1.99.23-.706.475-1.518.747-2.45.272-.932.596-2.094.962-3.545a.63.63 0 00-.361-.728 2.776 2.776 0 00-1.092-.36 3.083 3.083 0 00-1.202.078 1.012 1.012 0 00-.747.607 102.133 102.133 0 00-1.787 5.922 173.68 173.68 0 00-1.406 5.644c-.45 1.88-.92 3.86-1.416 5.922a.647.647 0 00-.209.22c-.387.87-.941 2.052-1.667 3.54a114.061 114.061 0 01-2.274 4.429 38.637 38.637 0 01-2.315 3.801c-.756 1.072-1.357 1.595-1.802 1.57-.33 0-.486-.47-.466-1.34.13-1.53.409-3.046.831-4.523.094-.414.293-1.095.607-2.032.313-.937.632-1.99.966-3.141.335-1.152.633-2.362.894-3.592.243-1.075.378-2.17.402-3.273a4.396 4.396 0 00-.522-2.272c-.34-.57-.941-.764-1.798-.581-.742.162-1.526.838-2.341 2.021a29.107 29.107 0 00-2.409 4.361 89.11 89.11 0 00-2.32 5.613 171.875 171.875 0 00-2.06 5.76 871.41 871.41 0 01-1.609 4.77c-.46 1.366-.8 2.267-1.008 2.707-.21.44-.272.309-.168-.278.209-.948.481-1.88.816-2.79.188-.556.423-1.304.69-2.236.266-.932.522-1.911.82-2.943.298-1.031.554-2.047.836-3.042l.69-2.44c.292-1.176.575-2.342.846-3.497.252-.984.401-1.991.444-3.006a2.833 2.833 0 00-.459-1.89c-.335-.408-.941-.476-1.83-.21-.888.268-1.813 1.095-2.774 2.488a41.63 41.63 0 00-2.937 5.02 97.56 97.56 0 00-2.932 6.352 436.159 436.159 0 00-2.69 6.519c-.179.392-.252.523-.22.309.03-.215.114-.582.26-1.189.147-.607.335-1.377.591-2.309.256-.932.523-1.9.852-2.922.33-1.02 3.611-12.461 3.867-13.351a.996.996 0 00-.25-.623 6.268 6.268 0 00-1.704-1.105 1.236 1.236 0 00-.988.1c-.052.172-2.352 8.141-2.65 9.162a92.29 92.29 0 00-.956 3.571 111.33 111.33 0 00-.966 4.241 23.912 23.912 0 00-.523 3.807v.34c-.136.24-.272.487-.413.728a70.23 70.23 0 01-2.247 3.665 20.523 20.523 0 01-1.918 2.55c-.58.644-1.045.948-1.364.927-.318-.021-.381-.466-.292-1.404.13-1.192.329-2.375.596-3.544.313-1.424.7-3.011 1.16-4.76.46-1.748.926-3.459 1.4-5.13.47-1.671.93-3.195 1.37-4.577.438-1.382.783-2.44 1.044-3.142-.026-.157-.172-.335-.449-.523a3.658 3.658 0 00-.93-.482 3.175 3.175 0 00-.977-.204c-.303 0-.465.068-.476.23a63.47 63.47 0 01-.6 2.246 111.607 111.607 0 00-.768 2.697c-.126.46-.304 1.12-.524 1.963a71.386 71.386 0 01-1.604 3.142 43.588 43.588 0 01-1.829 3.084 16.756 16.756 0 01-1.934 2.44 3.657 3.657 0 01-1.933 1.162c-.523.09-.747-.288-.706-1.12a14.93 14.93 0 01.633-3.189 37.62 37.62 0 011.52-4.189 51.609 51.609 0 011.981-4.188 21.926 21.926 0 011.928-3.042c.601-.765 1.046-1.048 1.375-.864 0 0 .031.036.052.047a8.703 8.703 0 00-2.294 4.513c-.152.801-.235 3.142 1.416 1.445a7.651 7.651 0 001.568-2.618 6.128 6.128 0 00.355-2.445 4.15 4.15 0 00-.199-.99 8.136 8.136 0 013.272-1.633c2.148-.628 4.583-.602 4.092.953-.24.749.59.356.559 0-.465-4.613-8.095.126-8.168.188-.068-.12-.115-.261-.193-.377a1.737 1.737 0 00-1.464-.754 3.769 3.769 0 00-2.09.828 11.406 11.406 0 00-2.545 2.811c-.54.815-1.03 1.663-1.463 2.54A31.726 31.726 0 0070.73 56.5a31.053 31.053 0 00-.993 3.184c-.25.965-.402 1.952-.455 2.948-.016.414 0 .829.047 1.24a51.705 51.705 0 01-1.51 2.482c-.433.663-.919 1.29-1.453 1.875-.433.45-.747.576-.94.366-.282-.235-.34-.822-.168-1.759.173-.937.429-2.042.784-3.33.356-1.288.763-2.686 1.223-4.189a57.21 57.21 0 001.14-4.304 23.82 23.82 0 00.553-3.623c.068-1.047-.094-1.801-.486-2.22a1.524 1.524 0 00-2.001-.152 8.85 8.85 0 00-2.357 2.267 30.819 30.819 0 00-2.446 3.76 110.23 110.23 0 00-2.278 4.246c-.7 1.388-1.306 2.618-1.808 3.749a55.156 55.156 0 01-1.045 2.257c-.33.696-.68 1.481-1.045 2.345-.366.864-.742 1.76-1.14 2.67a98.54 98.54 0 00-1.154 2.76 63.518 63.518 0 01-1.093 2.57c.3-2.345.722-4.935 1.265-7.77a107.78 107.78 0 012.158-9c1.328-1.55 2.77-3.295 4.327-5.236a166.536 166.536 0 004.709-6.168 144.489 144.489 0 004.457-6.66 77.736 77.736 0 003.83-6.775 52.103 52.103 0 002.734-6.46 22.296 22.296 0 001.238-5.76c.073-1.508-.1-2.503-.522-3a2.247 2.247 0 00-1.856-.665 6.421 6.421 0 00-4.023 1.722 21.454 21.454 0 00-3.956 4.56 52.91 52.91 0 00-3.742 6.603c-1.209 2.5-2.364 5.13-3.465 7.89-1.1 2.762-2.114 5.57-3.041 8.425a229.017 229.017 0 00-2.498 8.215c-.522 1.812-.982 3.55-1.4 5.236a54.54 54.54 0 01-4.625 3.927c-2.54 1.885-14.313 6.707-14.298-1.241a.225.225 0 00-.444 0c0 3.969 4.003 5.147 7.41 4.618 4.787-.743 8.361-3.419 11.763-6.513-.193.795-.381 1.57-.548 2.345a63.782 63.782 0 00-1.181 6.807 15.85 15.85 0 000 4.592c.23 1.13.726 1.696 1.494 1.686.199-.032.413-.22.638-.56a7.17 7.17 0 00.606-1.126c.174-.416.32-.814.439-1.194.062-.246.155-.484.277-.707.256-.65.643-1.57 1.15-2.79a301.74 301.74 0 011.708-4.006 223.16 223.16 0 012.038-4.566 74.185 74.185 0 012.258-4.518 40.44 40.44 0 012.325-3.77 10.857 10.857 0 012.185-2.419c.433-.314.653-.267.658.13a6.93 6.93 0 01-.387 1.88c-.266.849-.6 1.875-1.014 3.069a88.16 88.16 0 00-1.18 3.702 49.028 49.028 0 00-.957 3.759 12.426 12.426 0 00-.319 3.225 3.47 3.47 0 00.748 2.142c.45.523 1.207.675 2.273.523.826-.136 1.703-.848 2.613-2.13a35.41 35.41 0 001.677-2.577 2.22 2.22 0 001.228 1.31 2.353 2.353 0 002.09-.137 7.405 7.405 0 002.09-1.764c.75-.9 1.435-1.852 2.05-2.849a54.614 54.614 0 001.964-3.382 24.776 24.776 0 00-1.202 3.403 46.823 46.823 0 00-.961 4.09 28.006 28.006 0 00-.476 3.921c-.089.991.014 1.99.303 2.943a1.44 1.44 0 001.364 1.1c.655 0 1.56-.533 2.712-1.598a16.49 16.49 0 001.876-2.246 42.428 42.428 0 002.09-3.215l.523-.91c.058.254.162.495.309.711.334.445.956.335 1.855-.34.575-.457 1.17-1.393 1.787-2.806a184.593 184.593 0 002.043-4.901c.747-1.854 1.568-3.78 2.482-5.76a31.476 31.476 0 013.089-5.377c1.223-1.655 1.858-1.972 1.907-.953.049 1.02-.442 3.187-1.474 6.503-.369 1.187-.766 2.522-1.191 4.005a85.835 85.835 0 00-1.15 4.456 85.908 85.908 0 00-.857 4.189 19.445 19.445 0 00-.34 3.262c0 .869.137 1.43.403 1.686.267.256.726.052 1.385-.623a8.905 8.905 0 001.39-2.587c.55-1.34 1.151-2.921 1.803-4.744l2.09-5.848a141.295 141.295 0 012.268-5.938 62.59 62.59 0 012.252-4.942 9.087 9.087 0 012.091-2.88c.423-.356.663-.325.71.094a6.195 6.195 0 01-.251 1.943 75.107 75.107 0 01-.898 3.236 160.262 160.262 0 00-1.103 3.958 63.998 63.998 0 00-.941 4.058 17.08 17.08 0 00-.371 3.628 5.999 5.999 0 00.56 2.66 1.971 1.971 0 001.876 1.047c.404 0 .9-.303 1.489-.91a15.798 15.798 0 001.792-2.383 67.8 67.8 0 001.871-3.184 65.547 65.547 0 001.751-3.377c.261-.523.522-1.047.726-1.534-.287 1.047-.585 2.178-.914 3.34-1.899 3.945-3.455 7.579-4.667 10.902a88.884 88.884 0 00-2.733 8.644 30.92 30.92 0 00-1.009 5.849c-.062 1.466.094 2.324.46 2.586.502.35 1.054.197 1.657-.455a13.318 13.318 0 001.871-3 44.262 44.262 0 001.944-4.77 162.612 162.612 0 003.647-11.765c.54-2 1.019-3.822 1.437-5.467l1.045-4.1c.267-1.088.418-1.759.46-2.01.857-1.668 1.69-3.24 2.498-4.712a39.486 39.486 0 012.394-3.9 16.252 16.252 0 012.262-2.671 3.134 3.134 0 012.091-.99c.449 0 .658.42.627 1.225a14.151 14.151 0 01-.57 3.142 46.813 46.813 0 01-1.369 4.189 159.836 159.836 0 01-1.709 4.366 46.96 46.96 0 01-1.677 3.634c-.329.707-.74 1.373-1.223 1.984a8.473 8.473 0 00-1.667.576 11.62 11.62 0 00-1.39.775 3.94 3.94 0 00-.925.822.98.98 0 00-.267.77c0 .157.204.215.523.178a4.301 4.301 0 001.217-.35c.557-.251 1.096-.538 1.615-.86a11.143 11.143 0 001.688-1.183c4.442-2.817 7.165-1.785 8.022-.152a7.8 7.8 0 00-2.953 2.063c-1.259 1.665-1.045 4.844 1.568 4.467 2.519-.362 2.613-3.43 2.325-5.399a4.494 4.494 0 00-.24-.926l.789-.34c1.474-.619 3.073-1.341 4.625-1.179.376.032.209-.57-.147-.523zm-56.38-7.435c.055.123.093.254.115.387.042.472.007.948-.105 1.409a7.586 7.586 0 01-.606 1.67 5.933 5.933 0 01-1.045 1.57c-1.03.906-.178-4.193 1.641-5.036zm-22.1 3.194a211.138 211.138 0 012.441-7.477c.958-2.779 2.02-5.669 3.188-8.67 1.163-2.996 2.383-5.757 3.658-8.284a38.803 38.803 0 013.872-6.34c1.322-1.713 2.587-2.671 3.81-2.87.668-.115 1.139.204 1.405.942.267.739.256 1.985-.026 3.723a28.839 28.839 0 01-1.531 5.388 56.614 56.614 0 01-2.613 5.817 103.338 103.338 0 01-3.418 5.98 98.556 98.556 0 01-3.945 5.916 180.295 180.295 0 01-4.18 5.587 127.113 127.113 0 01-4.097 5c.292-.932.771-2.503 1.436-4.712zm52.712 16.838a411.725 411.725 0 01-1.975 7.55c-.523 1.943-.951 3.367-1.27 4.262-.319.896-.559 1.325-.731 1.273-.173-.053-.314-.623-.215-1.87.181-1.735.496-3.454.941-5.141.523-2.189 1.301-4.75 2.31-7.702 1.008-2.953 2.304-6.147 3.882-9.592a856.094 856.094 0 00-2.942 11.22zm19.889-5.89c-1.489 2.618-4.18 1.126-2.848-2 .476-1.11 1.777-1.864 2.99-2.42.165.622.263 1.26.292 1.901a4.34 4.34 0 01-.434 2.498v.02z" fill="#fff"/><path d="M52.847 36.473c-.418-1.082-1.336-1.925-2.754-2.529a11.523 11.523 0 00-5.356-.649c-1.917.122-3.807.52-5.612 1.178a28.606 28.606 0 00-5.315 2.581 33.523 33.523 0 00-4.865 3.665 38.14 38.14 0 00-4.18 4.461 22.428 22.428 0 00-6.93.194c-2.738.43-6.846 1.335-9.74 2.744a19.872 19.872 0 00-7.4 6.754c-1.233 2.094-.915 5.026 1.682 6.283 3.308 1.597 7.369-2.094 8.482-4.131 1.113-2.037 1.243-6.618-2.498-5.969a2.455 2.455 0 00-2.176 2.574 2.463 2.463 0 002.432 2.332c.261 0 .214-.246 0-.325-4.458-1.528.862-6.806 2.446-2.392.256.712.156 4.084-3.455 6.084-2.09 1.146-4.18 1.618-5.842-.44-.773-.943-1.845-5.136 7.128-10.158 2.613-1.466 5.68-1.921 8.288-2.34a20.34 20.34 0 016.736.094 50.093 50.093 0 00-4.092 6.56 74.004 74.004 0 00-3.632 8.001 82.468 82.468 0 00-2.77 8.582 45.957 45.957 0 00-1.426 8.45 26.992 26.992 0 00.434 7.498c.4 2.128 1.35 4.114 2.754 5.76a10.755 10.755 0 005.534 3.235c2.334.608 5.269.571 8.805-.11a20.678 20.678 0 004.473-1.44 33.956 33.956 0 004.589-2.507 26.243 26.243 0 004.483-3.666 19.12 19.12 0 003.193-4.188 12.585 12.585 0 001.495-4.247 5.912 5.912 0 00-.617-3.785 6.356 6.356 0 00-2.9-2.183 8.059 8.059 0 00-3.46-.456c-1.167.1-2.31.394-3.38.87a8.514 8.514 0 00-2.718 1.868 7.525 7.525 0 00-1.73 2.487 4.805 4.805 0 00-.408 2.446 2.84 2.84 0 001.01 1.843c.58.492 1.462.727 2.664.707a.585.585 0 00.643-.377c.11-.267-.183-.44-.883-.524a2.478 2.478 0 01-1.83-.833 2.532 2.532 0 01-.522-1.712 4.99 4.99 0 01.654-2.126 6.73 6.73 0 011.698-2.01 7.558 7.558 0 012.822-1.482 8.527 8.527 0 012.984-.293 6.372 6.372 0 012.613.775 3.986 3.986 0 011.666 1.675 5.937 5.937 0 01.58 3.508 9.96 9.96 0 01-1.363 3.849 20.745 20.745 0 01-2.906 3.806 21.349 21.349 0 01-4.06 3.315 29.397 29.397 0 01-4.777 2.539 23.675 23.675 0 01-4.39 1.35c-3.337.64-5.98.4-7.927-.716a9.123 9.123 0 01-4.117-5.137c-.798-2.3-1.07-5.077-.816-8.33.305-3.521.936-7.006 1.887-10.41a88.487 88.487 0 013.96-11.309 98.518 98.518 0 015.53-11.047c1.7.293 3.393.558 5.08.796 1.687.235 3.391.325 5.094.267a21.126 21.126 0 005.153-.838 17.817 17.817 0 005.105-2.487c2.125-1.445 3.55-2.873 4.275-4.283.724-1.41.883-2.644.475-3.702zm-1.306 3.623a9.548 9.548 0 01-2.613 2.938 15.946 15.946 0 01-5 2.743c-1.692.557-3.449.886-5.227.98-1.744.088-3.493.02-5.225-.205a81.314 81.314 0 01-4.933-.827 24.762 24.762 0 014.233-4.875 31.494 31.494 0 015.35-3.906c1.72-1 3.546-1.801 5.446-2.387a9.618 9.618 0 014.562-.414 6.034 6.034 0 012.759 1.215 3.41 3.41 0 011.223 2.094 4.29 4.29 0 01-.59 2.623l.015.021z" fill="#fff"/></svg>