<?xml version="1.0" encoding="utf-8"?><svg width="35" height="25" fill="none" xmlns="http://www.w3.org/2000/svg" viewBox="0 0 35 25"><path d="M34.268 3.89A4.4 4.4 0 0031.174.776C28.438.04 17.5.04 17.5.04S6.562.04 3.826.776A4.399 4.399 0 00.732 3.89C0 6.638 0 12.37 0 12.37s0 5.73.732 8.48a4.399 4.399 0 003.094 3.113C6.562 24.7 17.5 24.7 17.5 24.7s10.938 0 13.674-.736a4.398 4.398 0 003.094-3.114C35 18.101 35 12.37 35 12.37s0-5.73-.732-8.479zM13.92 17.574V7.165l9.148 5.205-9.148 5.204z" fill="#fff"/></svg>